<?xml version="1.0" encoding="UTF-8" standalone="no"?>
<!-- Created with Inkscape (http://www.inkscape.org/) -->

<svg
   xmlns:dc="http://purl.org/dc/elements/1.1/"
   xmlns:cc="http://creativecommons.org/ns#"
   xmlns:rdf="http://www.w3.org/1999/02/22-rdf-syntax-ns#"
   xmlns:svg="http://www.w3.org/2000/svg"
   xmlns="http://www.w3.org/2000/svg"
   xmlns:sodipodi="http://sodipodi.sourceforge.net/DTD/sodipodi-0.dtd"
   xmlns:inkscape="http://www.inkscape.org/namespaces/inkscape"
   width="660"
   height="165"
   viewBox="0 0 174.625 43.656251"
   version="1.1"
   id="svg8"
   inkscape:version="0.92.3 (2405546, 2018-03-11)"
   sodipodi:docname="splash.svg">
  <defs
     id="defs2" />
  <sodipodi:namedview
     id="base"
     pagecolor="#ffffff"
     bordercolor="#666666"
     borderopacity="1.0"
     inkscape:pageopacity="0.0"
     inkscape:pageshadow="2"
     inkscape:zoom="1"
     inkscape:cx="307.09913"
     inkscape:cy="16.004163"
     inkscape:document-units="mm"
     inkscape:current-layer="layer1"
     showgrid="false"
     units="px"
     inkscape:window-width="1600"
     inkscape:window-height="835"
     inkscape:window-x="0"
     inkscape:window-y="0"
     inkscape:window-maximized="1" />
  <metadata
     id="metadata5">
    <rdf:RDF>
      <cc:Work
         rdf:about="">
        <dc:format>image/svg+xml</dc:format>
        <dc:type
           rdf:resource="http://purl.org/dc/dcmitype/StillImage" />
        <dc:title />
      </cc:Work>
    </rdf:RDF>
  </metadata>
  <g
     inkscape:label="Layer 1"
     inkscape:groupmode="layer"
     id="layer1"
     transform="translate(0,-253.34373)">
    <rect
       style="opacity:1;fill:#000000;fill-opacity:1;fill-rule:nonzero;stroke:none;stroke-width:0.39995456;stroke-linecap:square;stroke-linejoin:miter;stroke-miterlimit:4;stroke-dasharray:none;stroke-dashoffset:0;stroke-opacity:1"
       id="rect1033"
       width="174.625"
       height="43.65625"
       x="0"
       y="253.34375" />
    <rect
       y="253.34375"
       x="0"
       height="43.65625"
       width="2.6458333"
       id="rect1035"
       style="opacity:1;fill:#0271bc;fill-opacity:1;fill-rule:nonzero;stroke:none;stroke-width:0.049231;stroke-linecap:square;stroke-linejoin:miter;stroke-miterlimit:4;stroke-dasharray:none;stroke-dashoffset:0;stroke-opacity:1" />
    <g
       inkscape:label="Layer 1"
       id="layer1-6"
       transform="matrix(0.48155645,0,0,0.48155645,5.6353922,263.65644)">
      <path
         sodipodi:nodetypes="cccccccccccccccccccccccccccccccccccccccccccccccccccccc"
         inkscape:connector-curvature="0"
         id="path4300"
         d="m 23.95947,23.48515 3.143627,6.775009 2.628737,2.953887 2.466124,2.466179 2.086724,1.951165 0.108256,3.30635 -1.57182,2.005311 L 30.0027,44 25.991864,43.268249 23.661242,40.666565 21.439014,36.140915 19.406497,31.506724 18.241185,26.709956 17.59079,23.376667 16.696442,21.994541 15.016228,21.073073 11.926792,20.016238 9.270959,18.552891 6.8319409,16.710009 5.2872192,13.972836 5.4498189,10.747968 7.9430511,9.013515 l 3.0081339,0.135479 1.761516,1.924101 1.382112,1.869944 1.490523,1.680182 2.005421,1.084067 -1.165309,-2.222281 -1.219514,-1.815673 -1.40922,-1.409199 L 12.82112,8.363119 V 6.1408706 L 14.663931,4.4335588 17.157166,4 l 2.005413,0.9213566 1.815726,2.2221911 1.300816,3.1979303 0.744361,3.387437 0.325421,2.669668 0.989876,0.853394 3.116543,1.138203 2.981028,1.05695 3.739843,1.924101 3.577233,2.493254 3.252035,2.737052 1.70732,3.712826 -0.86723,3.414632 -2.439031,2.032508 -3.116531,-0.05469 -2.195116,-1.626035 -2.005426,-3.143648 -2.140927,-3.52294 -3.495942,-2.764248 z"
         style="fill:#0271bc;fill-opacity:1;fill-rule:evenodd;stroke:#ffffff;stroke-width:1;stroke-linecap:butt;stroke-linejoin:miter;stroke-miterlimit:4;stroke-dasharray:none;stroke-opacity:1" />
    </g>
    <g
       aria-label="QChromosome"
       transform="matrix(0.26458333,0,0,0.26458333,34.569466,312.99089)"
       style="font-style:normal;font-variant:normal;font-weight:normal;font-stretch:normal;font-size:53.33333588px;line-height:125%;font-family:'Roboto Condensed';-inkscape-font-specification:'Roboto Condensed, ';letter-spacing:0px;word-spacing:0px;fill:#ffffff;fill-opacity:1;stroke:none;stroke-width:1px;stroke-linecap:butt;stroke-linejoin:miter;stroke-opacity:1"
       id="flowRoot839">
      <path
         d="m 16.713543,-156.97453 q 0,9.40104 -5.078125,13.67188 l 5.234375,4.6875 -4.817708,4.42708 -6.9791675,-6.38021 -2.0052084,0.13021 q -6.432292,0 -10.0781255,-4.34896 -3.6197916,-4.375 -3.6458336,-12.08333 v -5.9375 q 0,-7.8125 3.619792,-12.1875 3.6197918,-4.40104 10.0520838,-4.40104 6.2760419,0 9.9218752,4.21875 3.645834,4.21875 3.776042,11.84896 z m -7.6822919,-5.88541 q 0,-5.1823 -1.4843751,-7.65625 -1.4843751,-2.47396 -4.5312502,-2.47396 -3.04687518,0 -4.5052086,2.42187 -1.4583334,2.39584 -1.5104167,7.31771 v 6.27604 q 0,5.20834 1.484375,7.68229 1.51041679,2.47396 4.5833336,2.47396 2.9947918,0 4.4531252,-2.44791 1.4843751,-2.47396 1.5104168,-7.52605 z"
         style="font-style:normal;font-variant:normal;font-weight:bold;font-stretch:normal;font-family:'Roboto Condensed';-inkscape-font-specification:'Roboto Condensed, Bold';fill:#ffffff"
         id="path888" />
      <path
         d="m 47.937501,-153.58911 q -0.286458,6.48437 -3.645833,9.81771 -3.359375,3.33333 -9.479167,3.33333 -6.432292,0 -9.869792,-4.21875 -3.411459,-4.24479 -3.411459,-12.08333 v -6.38021 q 0,-7.8125 3.541667,-12.03125 3.541667,-4.24479 9.84375,-4.24479 6.197917,0 9.401043,3.46354 3.229166,3.46354 3.671875,9.94792 h -7.682292 q -0.104167,-4.01042 -1.25,-5.52084 -1.119792,-1.53646 -4.140626,-1.53646 -3.072916,0 -4.348958,2.16146 -1.276042,2.13542 -1.354167,7.05729 v 7.16146 q 0,5.65104 1.25,7.76042 1.276042,2.10937 4.348959,2.10937 3.020833,0 4.166667,-1.45833 1.145833,-1.48437 1.302083,-5.33854 z"
         style="font-style:normal;font-variant:normal;font-weight:bold;font-stretch:normal;font-family:'Roboto Condensed';-inkscape-font-specification:'Roboto Condensed, Bold';fill:#ffffff"
         id="path890" />
      <path
         d="m 59.47396,-166.66203 q 2.395834,-2.99479 5.885417,-2.99479 3.854167,0 5.859375,2.70833 2.005209,2.70834 2.03125,8.07292 v 17.91667 h -7.395833 v -17.83854 q 0,-2.47396 -0.78125,-3.56771 -0.755209,-1.11979 -2.473959,-1.11979 -2.005208,0 -3.125,1.84895 v 20.67709 h -7.369792 v -40 h 7.369792 z"
         style="font-style:normal;font-variant:normal;font-weight:bold;font-stretch:normal;font-family:'Roboto Condensed';-inkscape-font-specification:'Roboto Condensed, Bold';fill:#ffffff"
         id="path892" />
      <path
         d="m 92.442714,-162.02661 -2.447917,-0.20833 q -3.020833,0 -4.088541,2.65625 v 18.61979 h -7.395834 v -28.17709 h 6.953125 l 0.208334,3.04688 q 1.744791,-3.56771 4.817708,-3.56771 1.25,0 2.03125,0.33854 z"
         style="font-style:normal;font-variant:normal;font-weight:bold;font-stretch:normal;font-family:'Roboto Condensed';-inkscape-font-specification:'Roboto Condensed, Bold';fill:#ffffff"
         id="path894" />
      <path
         d="m 94.447917,-155.9589 q 0,-6.40625 3.020833,-10.05209 3.02083,-3.64583 8.35938,-3.64583 5.39062,0 8.41145,3.64583 3.02084,3.64584 3.02084,10.10417 v 1.79688 q 0,6.43229 -2.99479,10.05208 -2.9948,3.61979 -8.38542,3.61979 -5.41667,0 -8.437501,-3.61979 -2.994792,-3.64583 -2.994792,-10.10417 z m 7.395833,1.84896 q 0,7.55208 4.03646,7.55208 3.72396,0 4.01042,-6.30208 l 0.026,-3.09896 q 0,-3.85417 -1.06771,-5.70313 -1.06771,-1.875 -3.02083,-1.875 -1.875,0 -2.94271,1.875 -1.04167,1.84896 -1.04167,5.70313 z"
         style="font-style:normal;font-variant:normal;font-weight:bold;font-stretch:normal;font-family:'Roboto Condensed';-inkscape-font-specification:'Roboto Condensed, Bold';fill:#ffffff"
         id="path896" />
      <path
         d="m 128.79688,-169.13599 0.20833,2.60417 q 2.47396,-3.125 6.53646,-3.125 4.21875,0 5.96354,3.80208 2.42187,-3.80208 6.90104,-3.80208 7.39584,0 7.57813,10.23438 v 18.46354 h -7.3698 v -17.99479 q 0,-2.44792 -0.67708,-3.48959 -0.67708,-1.04166 -2.29167,-1.04166 -2.05729,0 -3.07291,2.52604 l 0.0521,0.88541 v 19.11459 h -7.36979 v -17.94271 q 0,-2.42188 -0.65104,-3.48958 -0.65104,-1.09375 -2.31771,-1.09375 -1.90104,0 -3.02083,2.05729 v 20.46875 h -7.3698 v -28.17709 z"
         style="font-style:normal;font-variant:normal;font-weight:bold;font-stretch:normal;font-family:'Roboto Condensed';-inkscape-font-specification:'Roboto Condensed, Bold';fill:#ffffff"
         id="path898" />
      <path
         d="m 160.59376,-155.9589 q 0,-6.40625 3.02083,-10.05209 3.02084,-3.64583 8.35938,-3.64583 5.39062,0 8.41146,3.64583 3.02083,3.64584 3.02083,10.10417 v 1.79688 q 0,6.43229 -2.99479,10.05208 -2.99479,3.61979 -8.38542,3.61979 -5.41666,0 -8.4375,-3.61979 -2.99479,-3.64583 -2.99479,-10.10417 z m 7.39583,1.84896 q 0,7.55208 4.03646,7.55208 3.72396,0 4.01042,-6.30208 l 0.026,-3.09896 q 0,-3.85417 -1.06771,-5.70313 -1.06771,-1.875 -3.02083,-1.875 -1.875,0 -2.94271,1.875 -1.04167,1.84896 -1.04167,5.70313 z"
         style="font-style:normal;font-variant:normal;font-weight:bold;font-stretch:normal;font-family:'Roboto Condensed';-inkscape-font-specification:'Roboto Condensed, Bold';fill:#ffffff"
         id="path900" />
      <path
         d="m 200.48959,-148.51099 q 0,-0.9375 -0.91145,-1.71875 -0.88542,-0.80729 -3.98438,-2.16145 -4.55729,-1.84896 -6.27604,-3.82813 -1.69271,-1.97917 -1.69271,-4.92187 0,-3.69792 2.65625,-6.09375 2.68229,-2.42188 7.08333,-2.42188 4.63542,0 7.42188,2.39583 2.78646,2.39584 2.78646,6.4323 h -7.36979 q 0,-3.4375 -2.86459,-3.4375 -1.17187,0 -1.92708,0.72916 -0.75521,0.72917 -0.75521,2.03125 0,0.9375 0.83333,1.66667 0.83334,0.70312 3.9323,2.03125 4.5052,1.66667 6.35416,3.72396 1.875,2.03125 1.875,5.28646 0,3.77604 -2.83854,6.0677 -2.83854,2.29167 -7.44792,2.29167 -3.09895,0 -5.46875,-1.19792 -2.36979,-1.22395 -3.72395,-3.38541 -1.32813,-2.16146 -1.32813,-4.66146 h 7.00521 q 0.0521,1.92708 0.88542,2.89062 0.85937,0.96355 2.78645,0.96355 2.96875,0 2.96875,-2.6823 z"
         style="font-style:normal;font-variant:normal;font-weight:bold;font-stretch:normal;font-family:'Roboto Condensed';-inkscape-font-specification:'Roboto Condensed, Bold';fill:#ffffff"
         id="path902" />
      <path
         d="m 211.42709,-155.9589 q 0,-6.40625 3.02083,-10.05209 3.02084,-3.64583 8.35938,-3.64583 5.39062,0 8.41146,3.64583 3.02083,3.64584 3.02083,10.10417 v 1.79688 q 0,6.43229 -2.99479,10.05208 -2.99479,3.61979 -8.38542,3.61979 -5.41667,0 -8.4375,-3.61979 -2.99479,-3.64583 -2.99479,-10.10417 z m 7.39583,1.84896 q 0,7.55208 4.03646,7.55208 3.72396,0 4.01042,-6.30208 l 0.026,-3.09896 q 0,-3.85417 -1.06771,-5.70313 -1.06771,-1.875 -3.02083,-1.875 -1.875,0 -2.94271,1.875 -1.04167,1.84896 -1.04167,5.70313 z"
         style="font-style:normal;font-variant:normal;font-weight:bold;font-stretch:normal;font-family:'Roboto Condensed';-inkscape-font-specification:'Roboto Condensed, Bold';fill:#ffffff"
         id="path904" />
      <path
         d="m 245.77606,-169.13599 0.20834,2.60417 q 2.47395,-3.125 6.53645,-3.125 4.21875,0 5.96355,3.80208 2.42187,-3.80208 6.90104,-3.80208 7.39583,0 7.57812,10.23438 v 18.46354 h -7.36979 v -17.99479 q 0,-2.44792 -0.67708,-3.48959 -0.67708,-1.04166 -2.29167,-1.04166 -2.05729,0 -3.07292,2.52604 l 0.0521,0.88541 v 19.11459 h -7.36979 v -17.94271 q 0,-2.42188 -0.65105,-3.48958 -0.65104,-1.09375 -2.3177,-1.09375 -1.90105,0 -3.02084,2.05729 v 20.46875 h -7.36979 v -28.17709 z"
         style="font-style:normal;font-variant:normal;font-weight:bold;font-stretch:normal;font-family:'Roboto Condensed';-inkscape-font-specification:'Roboto Condensed, Bold';fill:#ffffff"
         id="path906" />
      <path
         d="m 289.8125,-140.43807 q -5.67708,0 -8.85417,-3.38542 -3.17708,-3.38541 -3.17708,-9.6875 v -2.23958 q 0,-6.66667 2.91667,-10.28646 2.91666,-3.61979 8.35937,-3.61979 5.3125,0 7.99479,3.41146 2.6823,3.38542 2.73438,10.05208 v 3.61979 H 285.125 q 0.15625,3.125 1.38021,4.58334 1.22396,1.43229 3.77604,1.43229 3.69792,0 6.17188,-2.52604 l 2.89062,4.45312 q -1.35417,1.875 -3.93229,3.04688 -2.57813,1.14583 -5.59896,1.14583 z m -4.63542,-17.29167 h 7.3698 v -0.67708 q -0.0521,-2.52604 -0.83334,-3.82812 -0.78125,-1.30209 -2.70833,-1.30209 -1.92708,0 -2.8125,1.38021 -0.85938,1.38021 -1.01563,4.42708 z"
         style="font-style:normal;font-variant:normal;font-weight:bold;font-stretch:normal;font-family:'Roboto Condensed';-inkscape-font-specification:'Roboto Condensed, Bold';fill:#ffffff"
         id="path908" />
    </g>
    <g
       aria-label="4D Studio"
       transform="matrix(0.26458333,0,0,0.26458333,0.23030502,253.02858)"
       style="font-style:normal;font-variant:normal;font-weight:normal;font-stretch:normal;font-size:26.66666794px;line-height:125%;font-family:Roboto;-inkscape-font-specification:Roboto;letter-spacing:0px;word-spacing:0px;fill:#0271bc;fill-opacity:1;stroke:none;stroke-width:1px;stroke-linecap:butt;stroke-linejoin:miter;stroke-opacity:1"
       id="flowRoot847">
      <path
         d="m 130.18425,114.56352 h 2.6302 v 1.96614 h -2.6302 v 4.40105 h -2.42188 v -4.40105 h -8.63281 v -1.41927 l 8.48958,-13.13802 h 2.56511 z m -8.32032,0 h 5.89844 v -9.29688 l -0.28646,0.52084 z"
         style=""
         id="path911" />
      <path
         d="m 135.63998,120.93071 v -18.95834 h 5.35156 q 2.47396,0 4.375,1.09375 1.90104,1.09375 2.92969,3.11198 1.04166,2.01823 1.05468,4.63542 v 1.21093 q 0,2.6823 -1.04166,4.70053 -1.02865,2.01823 -2.95573,3.09895 -1.91407,1.08073 -4.46615,1.10678 z m 2.5,-16.90105 v 14.85677 h 2.6302 q 2.89063,0 4.49219,-1.79687 1.61458,-1.79688 1.61458,-5.11719 v -1.10677 q 0,-3.22917 -1.52343,-5.01302 -1.51042,-1.79688 -4.29688,-1.82292 z"
         style=""
         id="path913" />
      <path
         d="m 165.3405,112.48018 q -3.21615,-0.92448 -4.6875,-2.26562 -1.45834,-1.35417 -1.45834,-3.33333 0,-2.23959 1.78386,-3.69792 1.79687,-1.47136 4.66146,-1.47136 1.95312,0 3.47656,0.75521 1.53646,0.75521 2.36979,2.08334 0.84636,1.32812 0.84636,2.90364 h -2.51303 q 0,-1.71875 -1.09375,-2.69531 -1.09375,-0.98958 -3.08593,-0.98958 -1.84896,0 -2.89063,0.82031 -1.02864,0.80729 -1.02864,2.2526 0,1.15886 0.97656,1.96615 0.98958,0.79427 3.34635,1.45833 2.36979,0.66406 3.69792,1.47136 1.34115,0.79427 1.97917,1.86198 0.65104,1.0677 0.65104,2.51302 0,2.30468 -1.79688,3.69791 -1.79687,1.38021 -4.80468,1.38021 -1.95313,0 -3.64584,-0.74219 -1.69271,-0.7552 -2.61719,-2.05729 -0.91145,-1.30208 -0.91145,-2.95573 h 2.51302 q 0,1.71875 1.26302,2.72136 1.27604,0.98958 3.39844,0.98958 1.97916,0 3.03385,-0.80729 1.05469,-0.80729 1.05469,-2.20052 0,-1.39323 -0.97657,-2.14844 -0.97656,-0.76823 -3.54166,-1.51042 z"
         style=""
         id="path915" />
      <path
         d="m 178.47852,103.4307 v 3.41146 h 2.63021 v 1.86198 h -2.63021 v 8.73698 q 0,0.84636 0.35156,1.27604 0.35156,0.41667 1.19792,0.41667 0.41666,0 1.14583,-0.15625 v 1.95313 q -0.95052,0.26041 -1.84896,0.26041 -1.61458,0 -2.43489,-0.97656 -0.82032,-0.97656 -0.82032,-2.77344 v -8.73698 h -2.5651 v -1.86198 h 2.5651 v -3.41146 z"
         style=""
         id="path917" />
      <path
         d="m 192.60612,119.53748 q -1.40625,1.65364 -4.1276,1.65364 -2.25261,0 -3.4375,-1.30208 -1.17188,-1.31511 -1.1849,-3.88021 v -9.16667 h 2.40886 v 9.10157 q 0,3.20312 2.60416,3.20312 2.76042,0 3.67188,-2.05729 v -10.2474 h 2.40885 v 14.08855 h -2.29166 z"
         style=""
         id="path919" />
      <path
         d="m 198.00977,113.76925 q 0,-3.24219 1.53646,-5.20834 1.53646,-1.97916 4.02343,-1.97916 2.47396,0 3.91928,1.6927 v -7.34375 h 2.40885 v 20.00001 h -2.21354 l -0.11719,-1.51042 q -1.44531,1.77083 -4.02344,1.77083 -2.44791,0 -3.99739,-2.00521 -1.53646,-2.0052 -1.53646,-5.23437 z m 2.40885,0.27343 q 0,2.39584 0.98959,3.75 0.98958,1.35417 2.73437,1.35417 2.29167,0 3.34636,-2.05729 v -6.47136 q -1.08073,-1.99218 -3.32032,-1.99218 -1.77083,0 -2.76041,1.36718 -0.98959,1.36719 -0.98959,4.04948 z"
         style=""
         id="path921" />
      <path
         d="m 216.26498,120.93071 h -2.40886 v -14.08855 h 2.40886 z m -2.60417,-17.82553 q 0,-0.58593 0.35156,-0.98958 0.36459,-0.40365 1.06771,-0.40365 0.70313,0 1.06771,0.40365 0.36459,0.40365 0.36459,0.98958 0,0.58594 -0.36459,0.97657 -0.36458,0.39062 -1.06771,0.39062 -0.70312,0 -1.06771,-0.39062 -0.35156,-0.39063 -0.35156,-0.97657 z"
         style=""
         id="path923" />
      <path
         d="m 219.4681,113.75623 q 0,-2.07032 0.80729,-3.72396 0.82031,-1.65365 2.26563,-2.55209 1.45833,-0.89843 3.32031,-0.89843 2.8776,0 4.64844,1.99218 1.78385,1.99219 1.78385,5.29948 v 0.16927 q 0,2.0573 -0.79427,3.69792 -0.78125,1.62761 -2.2526,2.53906 -1.45834,0.91146 -3.35938,0.91146 -2.86458,0 -4.64844,-1.99219 -1.77083,-1.99218 -1.77083,-5.27343 z m 2.42187,0.28645 q 0,2.34375 1.08073,3.76303 1.09375,1.41927 2.91667,1.41927 1.83594,0 2.91667,-1.4323 1.08073,-1.44531 1.08073,-4.03645 0,-2.31771 -1.10677,-3.75 -1.09375,-1.44532 -2.91667,-1.44532 -1.78386,0 -2.87761,1.41927 -1.09375,1.41927 -1.09375,4.0625 z"
         style=""
         id="path925" />
    </g>
    <g
       id="g1028"
       transform="matrix(0.10391098,0,0,0.10391098,142.45802,287.29859)"
       style="fill:#0271bc;fill-opacity:1">
      <path
         id="path1018"
         d="m 38.2,28.8 c 0,-2.2 -1.2,-3.3 -3.6,-3.3 h -5 v 6.9 h 5.2 c 2.3,0 3.4,-1.2 3.4,-3.6 z"
         inkscape:connector-curvature="0"
         style="fill:#0271bc;fill-opacity:1" />
      <path
         id="path1020"
         d="M 37.7,36.5 C 36.9,36 36,35.7 34.9,35.7 h -5.2 v 7.1 H 35 c 1.3,0 2.3,-0.3 2.9,-0.8 0.6,-0.5 1,-1.5 1,-2.8 -0.1,-1.3 -0.5,-2.2 -1.2,-2.7 z"
         inkscape:connector-curvature="0"
         style="fill:#0271bc;fill-opacity:1" />
      <path
         id="path1022"
         d="m 12.8,0.1 v 0 L 0,12.9 v 42.7 3.5 8.8 H 8.8 12 189.9 V 11.8 L 201.7,0 Z M 35.1,46.2 H 25.7 V 22.1 h 9.1 c 2.5,0 4.3,0.5 5.5,1.5 1.2,1 1.8,2.6 1.8,4.8 0,1.4 -0.2,2.6 -0.7,3.4 -0.5,0.8 -1.2,1.5 -2.2,2 2.3,0.9 3.4,2.8 3.4,5.6 0.2,4.6 -2.3,6.8 -7.5,6.8 z m 26.1,0 h -3.8 v -1.1 c -1.7,1 -3.3,1.5 -4.7,1.5 -2.4,0 -4,-0.7 -4.9,-2 C 47,43.3 46.6,41 46.6,37.8 v -9.2 h 3.8 v 9.2 c 0,2.1 0.2,3.5 0.5,4.3 0.4,0.7 1.2,1.1 2.5,1.1 1.3,0 2.4,-0.2 3.5,-0.7 l 0.5,-0.2 V 28.7 h 3.8 z m 8.5,0 H 65.9 V 28.6 h 3.8 z m 0,-20.6 h -3.8 v -4 h 3.8 z m 8.7,20.6 H 74.6 V 21.3 h 3.8 z m 10.9,0.4 c -2,0 -3.4,-0.5 -4.1,-1.4 -0.7,-0.9 -1.1,-2.6 -1.1,-5.2 v -8.2 h -2.3 v -3.3 h 2.3 v -5.1 h 3.8 v 5.1 h 4.9 v 3.3 h -4.9 v 7.7 c 0,1.4 0.1,2.4 0.3,2.8 0.2,0.5 0.8,0.7 1.6,0.7 l 2.9,-0.1 0.2,3.1 c -1.6,0.5 -2.8,0.6 -3.6,0.6 z m 34.3,-0.4 h -6.1 l -2.7,-12.1 -2.7,12.1 H 106 l -3.7,-17.6 h 3.8 l 2.8,14.3 h 0.7 l 3.3,-14 h 3.9 l 3.3,14 h 0.7 l 2.7,-14.3 h 3.8 z m 10.9,0 h -3.8 V 28.6 h 3.8 z m 0,-20.6 h -3.8 v -4 h 3.8 z m 10.6,21 c -2,0 -3.4,-0.5 -4.1,-1.4 -0.7,-0.9 -1.1,-2.6 -1.1,-5.2 v -8.2 h -2.3 v -3.3 h 2.3 v -5.1 h 3.8 v 5.1 h 4.9 v 3.3 h -4.9 v 7.7 c 0,1.4 0.1,2.4 0.3,2.8 0.2,0.5 0.8,0.7 1.6,0.7 l 2.9,-0.1 0.2,3.1 c -1.6,0.5 -2.8,0.6 -3.6,0.6 z m 21.3,-0.4 h -3.8 v -9.3 c 0,-1.9 -0.2,-3.2 -0.6,-4 -0.4,-0.8 -1.2,-1.2 -2.5,-1.2 -1.1,0 -2.3,0.2 -3.4,0.6 l -0.6,0.2 v 13.8 h -3.8 v -25 h 3.8 v 8.2 c 1.7,-0.9 3.3,-1.3 4.8,-1.3 2.3,0 3.9,0.7 4.8,2 0.9,1.3 1.3,3.5 1.3,6.6 z"
         inkscape:connector-curvature="0"
         style="fill:#0271bc;fill-opacity:1" />
      <path
         id="path1024"
         d="m 275.3,0.1 h -3.2 -67.3 v 0 L 192,12.9 v 42.7 3.5 8.8 h 8.8 3.2 67.3 v 0 L 284.1,55.1 V 12.4 8.9 0.1 Z m -34.2,58.5 -6,2.8 -5.2,-8.5 c -0.7,0.2 -1.9,0.4 -3.6,0.4 -6.1,0 -10.3,-1.6 -12.7,-4.9 -2.4,-3.3 -3.6,-8.4 -3.6,-15.5 0,-7.1 1.2,-12.3 3.6,-15.7 2.4,-3.4 6.6,-5.1 12.6,-5.1 6,0 10.2,1.7 12.6,5.1 2.4,3.4 3.6,8.6 3.6,15.7 0,4.7 -0.5,8.4 -1.5,11.3 -1,2.9 -2.6,5.1 -4.9,6.6 z m 18.2,-6.1 c -3.3,0 -5.6,-0.8 -6.8,-2.3 -1.2,-1.5 -1.8,-4.4 -1.8,-8.6 V 28.1 h -4.5 v -5.4 h 4.5 v -8.5 h 6.3 v 8.5 h 8 v 5.4 h -8 v 12.8 c 0,2.4 0.2,3.9 0.5,4.7 0.3,0.8 1.2,1.2 2.7,1.2 l 4.8,-0.2 0.3,5.1 c -2.6,0.5 -4.6,0.8 -6,0.8 z"
         inkscape:connector-curvature="0"
         style="fill:#0271bc;fill-opacity:1" />
      <path
         id="path1026"
         d="m 226.2,17.6 c -3.7,0 -6.2,1.2 -7.5,3.6 -1.4,2.4 -2,6.3 -2,11.5 0,5.3 0.7,9.1 2,11.3 1.3,2.3 3.8,3.4 7.6,3.4 3.8,0 6.2,-1.1 7.6,-3.4 1.3,-2.2 2,-6 2,-11.3 0,-5.3 -0.7,-9.2 -2,-11.6 -1.5,-2.3 -4,-3.5 -7.7,-3.5 z"
         inkscape:connector-curvature="0"
         style="fill:#0271bc;fill-opacity:1" />
    </g>
  </g>
</svg>
