<?xml version="1.0" encoding="UTF-8" standalone="no"?>
<!-- Created with Inkscape (http://www.inkscape.org/) -->

<svg
   xmlns:dc="http://purl.org/dc/elements/1.1/"
   xmlns:cc="http://creativecommons.org/ns#"
   xmlns:rdf="http://www.w3.org/1999/02/22-rdf-syntax-ns#"
   xmlns:svg="http://www.w3.org/2000/svg"
   xmlns="http://www.w3.org/2000/svg"
   xmlns:sodipodi="http://sodipodi.sourceforge.net/DTD/sodipodi-0.dtd"
   xmlns:inkscape="http://www.inkscape.org/namespaces/inkscape"
   width="517"
   height="335"
   id="svg4449"
   version="1.1"
   inkscape:version="0.91 r13725"
   sodipodi:docname="splash.svg">
  <defs
     id="defs4451" />
  <sodipodi:namedview
     id="base"
     pagecolor="#ffffff"
     bordercolor="#666666"
     borderopacity="1.0"
     inkscape:pageopacity="0.0"
     inkscape:pageshadow="2"
     inkscape:zoom="1"
     inkscape:cx="-18.48415"
     inkscape:cy="125.06293"
     inkscape:document-units="px"
     inkscape:current-layer="layer1"
     showgrid="false"
     units="px"
     inkscape:window-width="1600"
     inkscape:window-height="835"
     inkscape:window-x="0"
     inkscape:window-y="0"
     inkscape:window-maximized="1" />
  <metadata
     id="metadata4454">
    <rdf:RDF>
      <cc:Work
         rdf:about="">
        <dc:format>image/svg+xml</dc:format>
        <dc:type
           rdf:resource="http://purl.org/dc/dcmitype/StillImage" />
        <dc:title />
      </cc:Work>
    </rdf:RDF>
  </metadata>
  <g
     inkscape:label="Layer 1"
     inkscape:groupmode="layer"
     id="layer1"
     transform="translate(0,-717.36216)">
    <rect
       style="opacity:1;fill:#000000;fill-opacity:1;stroke:none;stroke-width:4;stroke-linecap:round;stroke-linejoin:round;stroke-miterlimit:4;stroke-dasharray:none;stroke-dashoffset:0;stroke-opacity:1"
       id="rect5033"
       width="517"
       height="335"
       x="0"
       y="717.36218" />
    <g
       transform="translate(-15.764641,815.94054)"
       style="font-style:normal;font-weight:normal;font-size:40px;line-height:125%;font-family:sans-serif;letter-spacing:0px;word-spacing:0px;fill:#000000;fill-opacity:1;stroke:none;stroke-width:1px;stroke-linecap:butt;stroke-linejoin:miter;stroke-opacity:1"
       id="flowRoot5008">
      <path
         d="m 83.912109,33.848231 q 0,2.8125 -0.761718,4.760743 -0.747071,1.933593 -2.138672,3.017578 l 3.178711,2.856445 -1.816407,1.772461 -3.83789,-3.500977 q -0.922852,0.19043 -1.78711,0.19043 -3.325195,0 -5.24414,-2.329101 -1.904297,-2.34375 -1.948242,-6.577149 l 0,-3.881836 q 0,-4.30664 1.889648,-6.708984 1.889648,-2.416992 5.273438,-2.416992 3.413085,0 5.288085,2.358398 1.875,2.34375 1.904297,6.650391 l 0,3.808593 z m -2.680664,-3.720703 q 0,-3.383789 -1.113281,-5.024414 -1.098633,-1.655273 -3.398437,-1.655273 -2.197266,0 -3.339844,1.669922 -1.12793,1.669922 -1.142578,4.921875 l 0,3.808593 q 0,3.28125 1.127929,4.995118 1.142578,1.713867 3.383789,1.713867 2.226563,0 3.325196,-1.552735 1.098633,-1.552734 1.157226,-4.790039 l 0,-4.086914 z"
         style="font-style:normal;font-variant:normal;font-weight:normal;font-stretch:normal;font-size:30px;font-family:'Roboto Condensed';-inkscape-font-specification:'Roboto Condensed, ';fill:#ffffff"
         id="path4193" />
      <path
         d="m 101.57813,35.884364 q -0.17579,3.427735 -1.933599,5.244141 -1.743164,1.816406 -4.936523,1.816406 -3.208008,0 -5.097656,-2.43164 -1.889649,-2.44629 -1.889649,-6.621094 l 0,-3.867188 q 0,-4.160156 1.933594,-6.577148 1.948242,-2.416992 5.302734,-2.416992 3.090821,0 4.775391,1.860351 1.699218,1.845703 1.845708,5.288086 l -2.709966,0 q -0.175781,-2.607422 -1.098633,-3.720703 -0.922851,-1.113281 -2.8125,-1.113281 -2.182617,0 -3.354492,1.713867 -1.171875,1.699219 -1.171875,4.995117 l 0,3.911133 q 0,3.237305 1.083984,4.96582 1.098633,1.728516 3.19336,1.728516 2.094726,0 3.017578,-1.040039 0.922851,-1.040039 1.142578,-3.735352 l 2.709966,0 z"
         style="font-style:normal;font-variant:normal;font-weight:normal;font-stretch:normal;font-size:30px;font-family:'Roboto Condensed';-inkscape-font-specification:'Roboto Condensed, ';fill:#ffffff"
         id="path4195" />
      <path
         d="m 107.42285,28.42831 q 1.47949,-1.918946 3.7793,-1.918946 4.2041,0 4.26269,5.610352 l 0,10.532226 -2.57812,0 0,-10.415039 q 0,-1.860351 -0.62988,-2.636718 -0.61524,-0.791016 -1.86036,-0.791016 -0.96679,0 -1.74316,0.644531 -0.76172,0.644531 -1.23047,1.684571 l 0,11.513671 -2.59277,0 0,-22.5 2.59277,0 0,8.276368 z"
         style="font-style:normal;font-variant:normal;font-weight:normal;font-stretch:normal;font-size:30px;font-family:'Roboto Condensed';-inkscape-font-specification:'Roboto Condensed, ';fill:#ffffff"
         id="path4197" />
      <path
         d="m 125.85059,29.233974 q -0.542,-0.102539 -1.17188,-0.102539 -1.99219,0 -2.7832,2.182617 l 0,11.33789 -2.59278,0 0,-15.849609 2.51954,0 0.0439,1.611328 q 1.04004,-1.904297 2.94434,-1.904297 0.61523,0 1.02539,0.205078 l 0.0147,2.519532 z"
         style="font-style:normal;font-variant:normal;font-weight:normal;font-stretch:normal;font-size:30px;font-family:'Roboto Condensed';-inkscape-font-specification:'Roboto Condensed, ';fill:#ffffff"
         id="path4199" />
      <path
         d="m 127.6084,33.994716 q 0,-3.457031 1.66992,-5.463867 1.68457,-2.021485 4.43848,-2.021485 2.7539,0 4.42382,1.962891 1.68458,1.962891 1.72852,5.34668 l 0,1.669921 q 0,3.442383 -1.66992,5.449219 -1.66992,2.006836 -4.45313,2.006836 -2.7539,0 -4.42382,-1.948242 -1.65528,-1.948242 -1.71387,-5.273438 l 0,-1.728515 z m 2.59277,1.49414 q 0,2.44629 0.95215,3.85254 0.9668,1.391601 2.59277,1.391601 3.42774,0 3.53028,-4.951172 l 0,-1.787109 q 0,-2.431641 -0.9668,-3.837891 -0.9668,-1.420898 -2.59277,-1.420898 -1.59668,0 -2.56348,1.420898 -0.95215,1.40625 -0.95215,3.823242 l 0,1.508789 z"
         style="font-style:normal;font-variant:normal;font-weight:normal;font-stretch:normal;font-size:30px;font-family:'Roboto Condensed';-inkscape-font-specification:'Roboto Condensed, ';fill:#ffffff"
         id="path4201" />
      <path
         d="m 145.65527,26.802333 0.0586,1.464844 q 1.45019,-1.757813 3.82324,-1.757813 2.65137,0 3.70605,2.299805 1.49414,-2.299805 4.16016,-2.299805 4.37988,0 4.48242,5.463867 l 0,10.678711 -2.57812,0 0,-10.429687 q 0,-1.728516 -0.61524,-2.563477 -0.61523,-0.849609 -2.08008,-0.849609 -1.17187,0 -1.90429,0.908203 -0.73242,0.908203 -0.84961,2.314453 l 0,10.620117 -2.60742,0 0,-10.546875 q -0.0439,-3.295898 -2.68067,-3.295898 -1.96289,0 -2.76855,1.962891 l 0,11.879882 -2.57813,0 0,-15.849609 2.43164,0 z"
         style="font-style:normal;font-variant:normal;font-weight:normal;font-stretch:normal;font-size:30px;font-family:'Roboto Condensed';-inkscape-font-specification:'Roboto Condensed, ';fill:#ffffff"
         id="path4203" />
      <path
         d="m 165.22559,33.994716 q 0,-3.457031 1.66992,-5.463867 1.68457,-2.021485 4.43847,-2.021485 2.75391,0 4.42383,1.962891 1.68457,1.962891 1.72852,5.34668 l 0,1.669921 q 0,3.442383 -1.66992,5.449219 -1.66993,2.006836 -4.45313,2.006836 -2.75391,0 -4.42383,-1.948242 -1.65527,-1.948242 -1.71386,-5.273438 l 0,-1.728515 z m 2.59277,1.49414 q 0,2.44629 0.95215,3.85254 0.96679,1.391601 2.59277,1.391601 3.42774,0 3.53027,-4.951172 l 0,-1.787109 q 0,-2.431641 -0.96679,-3.837891 -0.9668,-1.420898 -2.59278,-1.420898 -1.59668,0 -2.56347,1.420898 -0.95215,1.40625 -0.95215,3.823242 l 0,1.508789 z"
         style="font-style:normal;font-variant:normal;font-weight:normal;font-stretch:normal;font-size:30px;font-family:'Roboto Condensed';-inkscape-font-specification:'Roboto Condensed, ';fill:#ffffff"
         id="path4205" />
      <path
         d="m 188.53125,38.594325 q 0,-0.834961 -0.62988,-1.435547 -0.62989,-0.600586 -2.43164,-1.40625 -2.09473,-0.864257 -2.95899,-1.479492 -0.84961,-0.615234 -1.27441,-1.391601 -0.42481,-0.791016 -0.42481,-1.875 0,-1.933594 1.40625,-3.208008 1.4209,-1.289063 3.61817,-1.289063 2.31445,0 3.7207,1.347657 1.40625,1.347656 1.40625,3.457031 l -2.57812,0 q 0,-1.069336 -0.71778,-1.816406 -0.71777,-0.761719 -1.83105,-0.761719 -1.14258,0 -1.80176,0.600586 -0.64453,0.585937 -0.64453,1.582031 0,0.791016 0.46875,1.274414 0.4834,0.483398 2.2998,1.274414 2.88575,1.12793 3.92578,2.211914 1.04004,1.069336 1.04004,2.72461 0,2.065429 -1.4209,3.310546 -1.42089,1.230469 -3.80859,1.230469 -2.47558,0 -4.01367,-1.420898 -1.53809,-1.420899 -1.53809,-3.603516 l 2.60743,0 q 0.0439,1.318359 0.80566,2.06543 0.76172,0.74707 2.13867,0.74707 1.28906,0 1.96289,-0.571289 0.67383,-0.585937 0.67383,-1.567383 z"
         style="font-style:normal;font-variant:normal;font-weight:normal;font-stretch:normal;font-size:30px;font-family:'Roboto Condensed';-inkscape-font-specification:'Roboto Condensed, ';fill:#ffffff"
         id="path4207" />
      <path
         d="m 193.93652,33.994716 q 0,-3.457031 1.66993,-5.463867 1.68457,-2.021485 4.43847,-2.021485 2.75391,0 4.42383,1.962891 1.68457,1.962891 1.72852,5.34668 l 0,1.669921 q 0,3.442383 -1.66993,5.449219 -1.66992,2.006836 -4.45312,2.006836 -2.75391,0 -4.42383,-1.948242 -1.65527,-1.948242 -1.71387,-5.273438 l 0,-1.728515 z m 2.59278,1.49414 q 0,2.44629 0.95215,3.85254 0.96679,1.391601 2.59277,1.391601 3.42773,0 3.53027,-4.951172 l 0,-1.787109 q 0,-2.431641 -0.96679,-3.837891 -0.9668,-1.420898 -2.59278,-1.420898 -1.59668,0 -2.56347,1.420898 -0.95215,1.40625 -0.95215,3.823242 l 0,1.508789 z"
         style="font-style:normal;font-variant:normal;font-weight:normal;font-stretch:normal;font-size:30px;font-family:'Roboto Condensed';-inkscape-font-specification:'Roboto Condensed, ';fill:#ffffff"
         id="path4209" />
      <path
         d="m 211.9834,26.802333 0.0586,1.464844 q 1.4502,-1.757813 3.82324,-1.757813 2.65137,0 3.70606,2.299805 1.49414,-2.299805 4.16016,-2.299805 4.37988,0 4.48242,5.463867 l 0,10.678711 -2.57813,0 0,-10.429687 q 0,-1.728516 -0.61523,-2.563477 -0.61524,-0.849609 -2.08008,-0.849609 -1.17188,0 -1.9043,0.908203 -0.73242,0.908203 -0.84961,2.314453 l 0,10.620117 -2.60742,0 0,-10.546875 q -0.0439,-3.295898 -2.68066,-3.295898 -1.96289,0 -2.76856,1.962891 l 0,11.879882 -2.57812,0 0,-15.849609 2.43164,0 z"
         style="font-style:normal;font-variant:normal;font-weight:normal;font-stretch:normal;font-size:30px;font-family:'Roboto Condensed';-inkscape-font-specification:'Roboto Condensed, ';fill:#ffffff"
         id="path4211" />
      <path
         d="m 237.76465,42.944911 q -2.95899,0 -4.54102,-1.757812 -1.58203,-1.772461 -1.61133,-5.185547 l 0,-1.918946 q 0,-3.544921 1.53809,-5.551757 1.55273,-2.021485 4.32129,-2.021485 2.7832,0 4.16016,1.772461 1.37695,1.772461 1.40625,5.522461 l 0,1.699219 -8.84766,0 0,0.366211 q 0,2.548828 0.95215,3.706055 0.96679,1.157226 2.76855,1.157226 1.14258,0 2.00684,-0.424805 0.8789,-0.439453 1.64062,-1.376953 l 1.34766,1.640625 q -1.68457,2.373047 -5.1416,2.373047 z m -0.29297,-14.208984 q -1.61133,0 -2.3877,1.113281 -0.77636,1.098633 -0.8789,3.427734 l 6.24023,0 0,-0.351562 q -0.10254,-2.255859 -0.82031,-3.222656 -0.70313,-0.966797 -2.15332,-0.966797 z"
         style="font-style:normal;font-variant:normal;font-weight:normal;font-stretch:normal;font-size:30px;font-family:'Roboto Condensed';-inkscape-font-specification:'Roboto Condensed, ';fill:#ffffff"
         id="path4213" />
    </g>
    <g
       transform="translate(-42.959221,788.61215)"
       style="font-style:normal;font-weight:normal;font-size:40px;line-height:125%;font-family:sans-serif;letter-spacing:0px;word-spacing:0px;fill:#0271bc;fill-opacity:1;stroke:none;stroke-width:1px;stroke-linecap:butt;stroke-linejoin:miter;stroke-opacity:1"
       id="flowRoot5016">
      <path
         d="m 101.93311,83.714921 1.23291,0 0,0.921631 -1.23291,0 0,2.062988 -1.13526,0 0,-2.062988 -4.046629,0 0,-0.665284 3.979489,-6.158447 1.2024,0 0,5.9021 z m -3.900151,0 2.764891,0 0,-4.35791 -0.13428,0.24414 -2.630611,4.11377 z"
         style="font-style:normal;font-variant:normal;font-weight:normal;font-stretch:normal;font-size:12.5px;font-family:Roboto;-inkscape-font-specification:Roboto;fill:#0271bc;fill-opacity:1"
         id="path4176" />
      <path
         d="m 104.49048,86.69954 0,-8.886719 2.50854,0 q 1.15967,0 2.05078,0.512695 0.89112,0.512696 1.3733,1.458741 0.48828,0.946045 0.49438,2.172851 l 0,0.567627 q 0,1.257324 -0.48828,2.203369 -0.48218,0.946045 -1.3855,1.452637 -0.89722,0.506592 -2.0935,0.518799 l -2.45972,0 z m 1.17187,-7.922363 0,6.964111 1.23291,0 q 1.35498,0 2.10572,-0.842285 0.75683,-0.842285 0.75683,-2.398682 l 0,-0.518799 q 0,-1.513672 -0.71411,-2.349853 -0.70801,-0.842285 -2.01416,-0.854492 l -1.36719,0 z"
         style="font-style:normal;font-variant:normal;font-weight:normal;font-stretch:normal;font-size:12.5px;font-family:Roboto;-inkscape-font-specification:Roboto;fill:#0271bc;fill-opacity:1"
         id="path4178" />
      <path
         d="m 118.4126,82.738358 q -1.50757,-0.433349 -2.19727,-1.062012 -0.68359,-0.634765 -0.68359,-1.5625 0,-1.049804 0.83618,-1.733398 0.84229,-0.689697 2.18506,-0.689697 0.91553,0 1.62964,0.354004 0.72021,0.354004 1.11084,0.976562 0.39673,0.622559 0.39673,1.361084 l -1.17798,0 q 0,-0.805664 -0.5127,-1.263428 -0.51269,-0.463867 -1.44653,-0.463867 -0.8667,0 -1.35498,0.384522 -0.48218,0.378418 -0.48218,1.055908 0,0.543213 0.45776,0.921631 0.46387,0.372314 1.56861,0.683594 1.11084,0.311279 1.7334,0.689697 0.62866,0.372314 0.92773,0.872803 0.30518,0.500488 0.30518,1.177978 0,1.080322 -0.84229,1.733398 -0.84228,0.646973 -2.2522,0.646973 -0.91552,0 -1.70898,-0.3479 -0.79346,-0.354004 -1.22681,-0.964356 -0.42724,-0.610351 -0.42724,-1.385498 l 1.17798,0 q 0,0.805664 0.59204,1.275635 0.59814,0.463867 1.59301,0.463867 0.92774,0 1.42212,-0.378418 0.49439,-0.378418 0.49439,-1.031494 0,-0.653076 -0.45777,-1.00708 -0.45776,-0.360107 -1.66015,-0.708008 z"
         style="font-style:normal;font-variant:normal;font-weight:normal;font-stretch:normal;font-size:12.5px;font-family:Roboto;-inkscape-font-specification:Roboto;fill:#0271bc;fill-opacity:1"
         id="path4180" />
      <path
         d="m 124.57104,78.496415 0,1.599121 1.23292,0 0,0.872803 -1.23292,0 0,4.095459 q 0,0.396728 0.1648,0.598144 0.16479,0.195313 0.56152,0.195313 0.19532,0 0.53711,-0.07324 l 0,0.915528 q -0.44555,0.12207 -0.8667,0.12207 -0.75683,0 -1.14135,-0.457764 -0.38453,-0.457763 -0.38453,-1.300048 l 0,-4.095459 -1.20239,0 0,-0.872803 1.20239,0 0,-1.599121 1.12915,0 z"
         style="font-style:normal;font-variant:normal;font-weight:normal;font-stretch:normal;font-size:12.5px;font-family:Roboto;-inkscape-font-specification:Roboto;fill:#0271bc;fill-opacity:1"
         id="path4182" />
      <path
         d="m 131.19336,86.046464 q -0.65918,0.775146 -1.93482,0.775146 -1.0559,0 -1.61132,-0.610351 -0.54932,-0.616456 -0.55542,-1.818848 l 0,-4.296875 1.12915,0 0,4.266357 q 0,1.501465 1.2207,1.501465 1.29395,0 1.72119,-0.964355 l 0,-4.803467 1.12915,0 0,6.604004 -1.07422,0 -0.0244,-0.653076 z"
         style="font-style:normal;font-variant:normal;font-weight:normal;font-stretch:normal;font-size:12.5px;font-family:Roboto;-inkscape-font-specification:Roboto;fill:#0271bc;fill-opacity:1"
         id="path4184" />
      <path
         d="m 133.72632,83.342606 q 0,-1.519775 0.72021,-2.441406 0.72022,-0.927734 1.88599,-0.927734 1.15967,0 1.83716,0.793457 l 0,-3.442383 1.12915,0 0,9.375 -1.0376,0 -0.0549,-0.708008 q -0.67749,0.830078 -1.88599,0.830078 -1.14746,0 -1.87378,-0.939941 -0.72021,-0.939942 -0.72021,-2.453614 l 0,-0.08545 z m 1.12915,0.128174 q 0,1.123047 0.46387,1.757813 0.46386,0.634765 1.28173,0.634765 1.07422,0 1.56861,-0.964355 l 0,-3.033448 q -0.50659,-0.933837 -1.5564,-0.933837 -0.83008,0 -1.29394,0.640869 -0.46387,0.640869 -0.46387,1.898193 z"
         style="font-style:normal;font-variant:normal;font-weight:normal;font-stretch:normal;font-size:12.5px;font-family:Roboto;-inkscape-font-specification:Roboto;fill:#0271bc;fill-opacity:1"
         id="path4186" />
      <path
         d="m 142.28345,86.69954 -1.12915,0 0,-6.604004 1.12915,0 0,6.604004 z m -1.22071,-8.355713 q 0,-0.274658 0.1648,-0.463867 0.1709,-0.189209 0.50049,-0.189209 0.32959,0 0.50049,0.189209 0.17089,0.189209 0.17089,0.463867 0,0.274658 -0.17089,0.457764 -0.1709,0.183105 -0.50049,0.183105 -0.32959,0 -0.50049,-0.183105 -0.1648,-0.183106 -0.1648,-0.457764 z"
         style="font-style:normal;font-variant:normal;font-weight:normal;font-stretch:normal;font-size:12.5px;font-family:Roboto;-inkscape-font-specification:Roboto;fill:#0271bc;fill-opacity:1"
         id="path4188" />
      <path
         d="m 143.78491,83.336503 q 0,-0.970459 0.37842,-1.745606 0.38452,-0.775146 1.06201,-1.196289 0.6836,-0.421142 1.5564,-0.421142 1.34888,0 2.17895,0.933837 0.83618,0.933838 0.83618,2.484131 l 0,0.07935 q 0,0.964356 -0.37231,1.733398 -0.36621,0.76294 -1.05591,1.190186 -0.68359,0.427246 -1.5747,0.427246 -1.34278,0 -2.17896,-0.933838 -0.83008,-0.933838 -0.83008,-2.471924 l 0,-0.07935 z m 1.13526,0.134277 q 0,1.098633 0.50659,1.763916 0.51269,0.665283 1.36719,0.665283 0.86059,0 1.36718,-0.671386 0.50659,-0.677491 0.50659,-1.89209 0,-1.086426 -0.51879,-1.757813 -0.5127,-0.67749 -1.36719,-0.67749 -0.83618,0 -1.34888,0.665283 -0.51269,0.665283 -0.51269,1.904297 z"
         style="font-style:normal;font-variant:normal;font-weight:normal;font-stretch:normal;font-size:12.5px;font-family:Roboto;-inkscape-font-specification:Roboto;fill:#0271bc;fill-opacity:1"
         id="path4190" />
    </g>
    <g
       id="g5065"
       transform="matrix(0.29705879,0,0,0.29705879,53.792,952.1661)"
       style="fill:#0271bc;fill-opacity:1">
      <path
         id="path5067"
         d="m 38.2,28.8 c 0,-2.2 -1.2,-3.3 -3.6,-3.3 l -5,0 0,6.9 5.2,0 c 2.3,0 3.4,-1.2 3.4,-3.6 z"
         inkscape:connector-curvature="0"
         style="fill:#0271bc;fill-opacity:1" />
      <path
         id="path5069"
         d="M 37.7,36.5 C 36.9,36 36,35.7 34.9,35.7 l -5.2,0 0,7.1 5.3,0 c 1.3,0 2.3,-0.3 2.9,-0.8 0.6,-0.5 1,-1.5 1,-2.8 -0.1,-1.3 -0.5,-2.2 -1.2,-2.7 z"
         inkscape:connector-curvature="0"
         style="fill:#0271bc;fill-opacity:1" />
      <path
         id="path5071"
         d="m 12.8,0.1 0,0 -12.8,12.8 0,42.7 0,3.5 0,8.8 8.8,0 3.2,0 177.9,0 0,-56.1 L 201.7,0 12.8,0.1 l 0,0 z m 22.3,46.1 -9.4,0 0,-24.1 9.1,0 c 2.5,0 4.3,0.5 5.5,1.5 1.2,1 1.8,2.6 1.8,4.8 0,1.4 -0.2,2.6 -0.7,3.4 -0.5,0.8 -1.2,1.5 -2.2,2 2.3,0.9 3.4,2.8 3.4,5.6 0.2,4.6 -2.3,6.8 -7.5,6.8 z m 26.1,0 -3.8,0 0,-1.1 c -1.7,1 -3.3,1.5 -4.7,1.5 -2.4,0 -4,-0.7 -4.9,-2 C 47,43.3 46.6,41 46.6,37.8 l 0,-9.2 3.8,0 0,9.2 c 0,2.1 0.2,3.5 0.5,4.3 0.4,0.7 1.2,1.1 2.5,1.1 1.3,0 2.4,-0.2 3.5,-0.7 l 0.5,-0.2 0,-13.6 3.8,0 0,17.5 0,0 z m 8.5,0 -3.8,0 0,-17.6 3.8,0 0,17.6 z m 0,-20.6 -3.8,0 0,-4 3.8,0 0,4 z m 8.7,20.6 -3.8,0 0,-24.9 3.8,0 0,24.9 z m 10.9,0.4 c -2,0 -3.4,-0.5 -4.1,-1.4 -0.7,-0.9 -1.1,-2.6 -1.1,-5.2 l 0,-8.2 -2.3,0 0,-3.3 2.3,0 0,-5.1 3.8,0 0,5.1 4.9,0 0,3.3 -4.9,0 0,7.7 c 0,1.4 0.1,2.4 0.3,2.8 0.2,0.5 0.8,0.7 1.6,0.7 l 2.9,-0.1 0.2,3.1 c -1.6,0.5 -2.8,0.6 -3.6,0.6 z m 34.3,-0.4 -6.1,0 -2.7,-12.1 -2.7,12.1 -6.1,0 -3.7,-17.6 3.8,0 2.8,14.3 0.7,0 3.3,-14 3.9,0 3.3,14 0.7,0 2.7,-14.3 3.8,0 -3.7,17.6 z m 10.9,0 -3.8,0 0,-17.6 3.8,0 0,17.6 z m 0,-20.6 -3.8,0 0,-4 3.8,0 0,4 z m 10.6,21 c -2,0 -3.4,-0.5 -4.1,-1.4 -0.7,-0.9 -1.1,-2.6 -1.1,-5.2 l 0,-8.2 -2.3,0 0,-3.3 2.3,0 0,-5.1 3.8,0 0,5.1 4.9,0 0,3.3 -4.9,0 0,7.7 c 0,1.4 0.1,2.4 0.3,2.8 0.2,0.5 0.8,0.7 1.6,0.7 l 2.9,-0.1 0.2,3.1 c -1.6,0.5 -2.8,0.6 -3.6,0.6 z m 21.3,-0.4 -3.8,0 0,-9.3 c 0,-1.9 -0.2,-3.2 -0.6,-4 -0.4,-0.8 -1.2,-1.2 -2.5,-1.2 -1.1,0 -2.3,0.2 -3.4,0.6 l -0.6,0.2 0,13.8 -3.8,0 0,-25 3.8,0 0,8.2 c 1.7,-0.9 3.3,-1.3 4.8,-1.3 2.3,0 3.9,0.7 4.8,2 0.9,1.3 1.3,3.5 1.3,6.6 l 0,9.4 z"
         inkscape:connector-curvature="0"
         style="fill:#0271bc;fill-opacity:1" />
      <path
         id="path5073"
         d="m 275.3,0.1 -3.2,0 -67.3,0 0,0 -12.8,12.8 0,42.7 0,3.5 0,8.8 8.8,0 3.2,0 67.3,0 0,0 12.8,-12.8 0,-42.7 0,-3.5 0,-8.8 -8.8,0 z m -34.2,58.5 -6,2.8 -5.2,-8.5 c -0.7,0.2 -1.9,0.4 -3.6,0.4 -6.1,0 -10.3,-1.6 -12.7,-4.9 -2.4,-3.3 -3.6,-8.4 -3.6,-15.5 0,-7.1 1.2,-12.3 3.6,-15.7 2.4,-3.4 6.6,-5.1 12.6,-5.1 6,0 10.2,1.7 12.6,5.1 2.4,3.4 3.6,8.6 3.6,15.7 0,4.7 -0.5,8.4 -1.5,11.3 -1,2.9 -2.6,5.1 -4.9,6.6 l 5.1,7.8 z m 18.2,-6.1 c -3.3,0 -5.6,-0.8 -6.8,-2.3 -1.2,-1.5 -1.8,-4.4 -1.8,-8.6 l 0,-13.5 -4.5,0 0,-5.4 4.5,0 0,-8.5 6.3,0 0,8.5 8,0 0,5.4 -8,0 0,12.8 c 0,2.4 0.2,3.9 0.5,4.7 0.3,0.8 1.2,1.2 2.7,1.2 l 4.8,-0.2 0.3,5.1 c -2.6,0.5 -4.6,0.8 -6,0.8 z"
         inkscape:connector-curvature="0"
         style="fill:#0271bc;fill-opacity:1" />
      <path
         id="path5075"
         d="m 226.2,17.6 c -3.7,0 -6.2,1.2 -7.5,3.6 -1.4,2.4 -2,6.3 -2,11.5 0,5.3 0.7,9.1 2,11.3 1.3,2.3 3.8,3.4 7.6,3.4 3.8,0 6.2,-1.1 7.6,-3.4 1.3,-2.2 2,-6 2,-11.3 0,-5.3 -0.7,-9.2 -2,-11.6 -1.5,-2.3 -4,-3.5 -7.7,-3.5 z"
         inkscape:connector-curvature="0"
         style="fill:#0271bc;fill-opacity:1" />
    </g>
    <g
       transform="matrix(0.52880328,0,0,0.52880328,160.02772,596.81409)"
       id="g4431">
      <circle
         r="21.860954"
         cy="538.96484"
         cx="392.41364"
         id="path4149"
         style="opacity:1;fill:#0271bc;fill-opacity:1;stroke:none;stroke-width:0.5;stroke-linecap:round;stroke-linejoin:round;stroke-miterlimit:4;stroke-dasharray:none;stroke-dashoffset:0;stroke-opacity:1" />
      <circle
         style="opacity:1;fill:#0271bc;fill-opacity:1;stroke:none;stroke-width:0.5;stroke-linecap:round;stroke-linejoin:round;stroke-miterlimit:4;stroke-dasharray:none;stroke-dashoffset:0;stroke-opacity:1"
         id="circle4151"
         cx="430.44934"
         cy="503.07202"
         r="20.610954" />
      <circle
         r="16.325239"
         cy="463.07202"
         cx="457.94934"
         id="circle4153"
         style="opacity:1;fill:#0271bc;fill-opacity:1;stroke:none;stroke-width:0.5;stroke-linecap:round;stroke-linejoin:round;stroke-miterlimit:4;stroke-dasharray:none;stroke-dashoffset:0;stroke-opacity:1" />
      <circle
         style="opacity:1;fill:#0271bc;fill-opacity:1;stroke:none;stroke-width:0.5;stroke-linecap:round;stroke-linejoin:round;stroke-miterlimit:4;stroke-dasharray:none;stroke-dashoffset:0;stroke-opacity:1"
         id="circle4155"
         cx="466.52078"
         cy="427.7149"
         r="9.539525" />
      <circle
         r="20.610954"
         cy="573.78632"
         cx="349.02078"
         id="circle4157"
         style="opacity:1;fill:#0271bc;fill-opacity:1;stroke:none;stroke-width:0.5;stroke-linecap:round;stroke-linejoin:round;stroke-miterlimit:4;stroke-dasharray:none;stroke-dashoffset:0;stroke-opacity:1" />
      <circle
         style="opacity:1;fill:#0271bc;fill-opacity:1;stroke:none;stroke-width:0.5;stroke-linecap:round;stroke-linejoin:round;stroke-miterlimit:4;stroke-dasharray:none;stroke-dashoffset:0;stroke-opacity:1"
         id="circle4163"
         cx="311.69937"
         cy="610.39343"
         r="19.360956" />
      <circle
         r="14.89667"
         cy="651.28632"
         cx="287.59219"
         id="circle4165"
         style="opacity:1;fill:#0271bc;fill-opacity:1;stroke:none;stroke-width:0.5;stroke-linecap:round;stroke-linejoin:round;stroke-miterlimit:4;stroke-dasharray:none;stroke-dashoffset:0;stroke-opacity:1" />
      <circle
         r="9.8964148"
         cy="723.56268"
         cx="308.50238"
         id="circle4169"
         style="opacity:1;fill:#0271bc;fill-opacity:1;stroke:none;stroke-width:0.5;stroke-linecap:round;stroke-linejoin:round;stroke-miterlimit:4;stroke-dasharray:none;stroke-dashoffset:0;stroke-opacity:1" />
      <circle
         r="10.729791"
         cy="757.63843"
         cx="334.87079"
         id="circle4173"
         style="opacity:1;fill:#0271bc;fill-opacity:1;stroke:none;stroke-width:0.5;stroke-linecap:round;stroke-linejoin:round;stroke-miterlimit:4;stroke-dasharray:none;stroke-dashoffset:0;stroke-opacity:1" />
      <circle
         style="opacity:1;fill:#0271bc;fill-opacity:1;stroke:none;stroke-width:0.5;stroke-linecap:round;stroke-linejoin:round;stroke-miterlimit:4;stroke-dasharray:none;stroke-dashoffset:0;stroke-opacity:1"
         id="circle4175"
         cx="367.97549"
         cy="789.5033"
         r="10.603521" />
      <circle
         r="8.4569473"
         cy="823.39099"
         cx="389.99643"
         id="circle4177"
         style="opacity:1;fill:#0271bc;fill-opacity:1;stroke:none;stroke-width:0.5;stroke-linecap:round;stroke-linejoin:round;stroke-miterlimit:4;stroke-dasharray:none;stroke-dashoffset:0;stroke-opacity:1" />
      <circle
         style="opacity:1;fill:#0271bc;fill-opacity:1;stroke:none;stroke-width:0.5;stroke-linecap:round;stroke-linejoin:round;stroke-miterlimit:4;stroke-dasharray:none;stroke-dashoffset:0;stroke-opacity:1"
         id="circle4171-6"
         cx="375.88577"
         cy="294.17633"
         r="10.729791" />
      <circle
         r="10.729791"
         cy="321.00052"
         cx="402.97015"
         id="circle4173-7"
         style="opacity:1;fill:#0271bc;fill-opacity:1;stroke:none;stroke-width:0.5;stroke-linecap:round;stroke-linejoin:round;stroke-miterlimit:4;stroke-dasharray:none;stroke-dashoffset:0;stroke-opacity:1" />
      <circle
         style="opacity:1;fill:#0271bc;fill-opacity:1;stroke:none;stroke-width:0.5;stroke-linecap:round;stroke-linejoin:round;stroke-miterlimit:4;stroke-dasharray:none;stroke-dashoffset:0;stroke-opacity:1"
         id="circle4175-5"
         cx="428.33224"
         cy="347.06729"
         r="10.603521" />
      <circle
         r="8.4569473"
         cy="375.7301"
         cx="444.67639"
         id="circle4177-3"
         style="opacity:1;fill:#0271bc;fill-opacity:1;stroke:none;stroke-width:0.5;stroke-linecap:round;stroke-linejoin:round;stroke-miterlimit:4;stroke-dasharray:none;stroke-dashoffset:0;stroke-opacity:1" />
      <circle
         style="opacity:1;fill:#0271bc;fill-opacity:1;stroke:none;stroke-width:0.5;stroke-linecap:round;stroke-linejoin:round;stroke-miterlimit:4;stroke-dasharray:none;stroke-dashoffset:0;stroke-opacity:1"
         id="circle4218"
         cx="359.82358"
         cy="265.68921"
         r="8.1033936" />
    </g>
    <g
       transform="matrix(0.52880328,0,0,0.52880328,160.02772,596.81409)"
       id="g4293"
       style="fill:#1a1a1a">
      <circle
         style="opacity:1;fill:#1a1a1a;fill-opacity:1;stroke:none;stroke-width:0.5;stroke-linecap:round;stroke-linejoin:round;stroke-miterlimit:4;stroke-dasharray:none;stroke-dashoffset:0;stroke-opacity:1"
         id="circle4179"
         cx="427.03864"
         cy="571.08984"
         r="17.985954" />
      <circle
         r="10.485954"
         cy="607.58984"
         cx="445.03864"
         id="circle4181"
         style="opacity:1;fill:#1a1a1a;fill-opacity:1;stroke:none;stroke-width:0.5;stroke-linecap:round;stroke-linejoin:round;stroke-miterlimit:4;stroke-dasharray:none;stroke-dashoffset:0;stroke-opacity:1" />
      <circle
         style="opacity:1;fill:#1a1a1a;fill-opacity:1;stroke:none;stroke-width:0.5;stroke-linecap:round;stroke-linejoin:round;stroke-miterlimit:4;stroke-dasharray:none;stroke-dashoffset:0;stroke-opacity:1"
         id="circle4183"
         cx="354.66364"
         cy="506.21484"
         r="18.610954" />
      <circle
         r="16.110954"
         cy="472.21484"
         cx="321.91364"
         id="circle4185"
         style="opacity:1;fill:#1a1a1a;fill-opacity:1;stroke:none;stroke-width:0.5;stroke-linecap:round;stroke-linejoin:round;stroke-miterlimit:4;stroke-dasharray:none;stroke-dashoffset:0;stroke-opacity:1" />
      <circle
         style="opacity:1;fill:#1a1a1a;fill-opacity:1;stroke:none;stroke-width:0.5;stroke-linecap:round;stroke-linejoin:round;stroke-miterlimit:4;stroke-dasharray:none;stroke-dashoffset:0;stroke-opacity:1"
         id="circle4187"
         cx="303.66364"
         cy="436.46484"
         r="11.860954" />
      <circle
         r="8.8964148"
         cy="371.94168"
         cx="321.4534"
         id="circle4220"
         style="opacity:1;fill:#1a1a1a;fill-opacity:1;stroke:none;stroke-width:0.5;stroke-linecap:round;stroke-linejoin:round;stroke-miterlimit:4;stroke-dasharray:none;stroke-dashoffset:0;stroke-opacity:1" />
      <circle
         style="opacity:1;fill:#1a1a1a;fill-opacity:1;stroke:none;stroke-width:0.5;stroke-linecap:round;stroke-linejoin:round;stroke-miterlimit:4;stroke-dasharray:none;stroke-dashoffset:0;stroke-opacity:1"
         id="circle4222"
         cx="339.7034"
         cy="353.94168"
         r="9.6464148" />
      <circle
         r="11.087481"
         cy="693.2962"
         cx="410.66028"
         id="circle4220-5"
         style="opacity:1;fill:#1a1a1a;fill-opacity:1;stroke:none;stroke-width:0.5;stroke-linecap:round;stroke-linejoin:round;stroke-miterlimit:4;stroke-dasharray:none;stroke-dashoffset:0;stroke-opacity:1" />
      <circle
         style="opacity:1;fill:#1a1a1a;fill-opacity:1;stroke:none;stroke-width:0.5;stroke-linecap:round;stroke-linejoin:round;stroke-miterlimit:4;stroke-dasharray:none;stroke-dashoffset:0;stroke-opacity:1"
         id="circle4222-6"
         cx="429.655"
         cy="667.11304"
         r="12.022195" />
    </g>
  </g>
</svg>
