<?xml version="1.0" encoding="UTF-8" standalone="no"?>
<!-- Created with Inkscape (http://www.inkscape.org/) -->

<svg
   xmlns:dc="http://purl.org/dc/elements/1.1/"
   xmlns:cc="http://creativecommons.org/ns#"
   xmlns:rdf="http://www.w3.org/1999/02/22-rdf-syntax-ns#"
   xmlns:svg="http://www.w3.org/2000/svg"
   xmlns="http://www.w3.org/2000/svg"
   xmlns:sodipodi="http://sodipodi.sourceforge.net/DTD/sodipodi-0.dtd"
   xmlns:inkscape="http://www.inkscape.org/namespaces/inkscape"
   sodipodi:docname="gear_icon.svg"
   inkscape:version="0.91 r"
   version="1.1"
   id="svg4337"
   height="48px"
   width="48px">
  <sodipodi:namedview
     inkscape:window-maximized="1"
     inkscape:window-y="0"
     inkscape:window-x="0"
     inkscape:window-height="848"
     inkscape:window-width="1600"
     inkscape:document-units="px"
     inkscape:grid-bbox="true"
     showgrid="true"
     inkscape:current-layer="svg4337"
     inkscape:cy="18.47167"
     inkscape:cx="33.138363"
     inkscape:zoom="5.6568539"
     inkscape:pageshadow="2"
     inkscape:pageopacity="0.0"
     borderopacity="1.0"
     bordercolor="#666666"
     pagecolor="#ffffff"
     id="base" />
  <defs
     id="defs4339" />
  <metadata
     id="metadata4342">
    <rdf:RDF>
      <cc:Work
         rdf:about="">
        <dc:format>image/svg+xml</dc:format>
        <dc:type
           rdf:resource="http://purl.org/dc/dcmitype/StillImage" />
        <dc:title />
      </cc:Work>
    </rdf:RDF>
  </metadata>
  <path
     style="opacity:1;fill:#000000;fill-opacity:1;stroke:none;stroke-width:0.1;stroke-linecap:butt;stroke-linejoin:round;stroke-miterlimit:4;stroke-dasharray:none;stroke-dashoffset:36.54000092;stroke-opacity:1"
     d="M 38.832031 24.382812 L 37.056641 26.6875 A 8.4375 8.4375 0 0 0 34.822266 26.376953 A 8.4375 8.4375 0 0 0 32.419922 26.734375 L 30.587891 24.525391 L 27.794922 26.123047 L 28.900391 28.808594 A 8.4375 8.4375 0 0 0 26.626953 32.851562 L 23.794922 33.333984 L 23.783203 36.552734 L 26.662109 36.9375 A 8.4375 8.4375 0 0 0 29.023438 40.929688 L 28.027344 43.621094 L 30.808594 45.242188 L 32.582031 42.939453 A 8.4375 8.4375 0 0 0 34.822266 43.251953 A 8.4375 8.4375 0 0 0 37.224609 42.896484 L 39.052734 45.099609 L 41.845703 43.501953 L 40.742188 40.822266 A 8.4375 8.4375 0 0 0 43.019531 36.773438 L 45.845703 36.291016 L 45.857422 33.072266 L 42.980469 32.6875 A 8.4375 8.4375 0 0 0 40.617188 28.697266 L 41.613281 26.003906 L 38.832031 24.382812 z M 34.822266 30.939453 A 3.8749998 3.8749998 0 0 1 38.697266 34.814453 A 3.8749998 3.8749998 0 0 1 34.822266 38.689453 A 3.8749998 3.8749998 0 0 1 30.947266 34.814453 A 3.8749998 3.8749998 0 0 1 34.822266 30.939453 z "
     id="path4228" />
  <path
     style="opacity:1;fill:#000000;fill-opacity:1;stroke:none;stroke-width:0.1;stroke-linecap:butt;stroke-linejoin:round;stroke-miterlimit:4;stroke-dasharray:none;stroke-dashoffset:36.54000092;stroke-opacity:1"
     d="M 15.988281 2.046875 L 14.640625 6.3046875 A 11.4375 11.4375 0 0 0 13.171875 6.7753906 L 9.46875 4.21875 L 7.2421875 5.8203125 L 8.6523438 10.052734 A 11.4375 11.4375 0 0 0 7.7578125 11.302734 L 3.2460938 11.410156 L 2.3867188 14.013672 L 6.0273438 16.615234 A 11.4375 11.4375 0 0 0 5.9882812 17.386719 A 11.4375 11.4375 0 0 0 6.015625 18.152344 L 2.4375 20.884766 L 3.2734375 23.496094 L 7.7421875 23.464844 A 11.4375 11.4375 0 0 0 8.6464844 24.701172 L 7.3554688 29.025391 L 9.5664062 30.646484 L 13.164062 27.992188 A 11.4375 11.4375 0 0 0 14.619141 28.460938 L 16.117188 32.720703 L 18.859375 32.732422 L 20.208984 28.470703 A 11.4375 11.4375 0 0 0 21.669922 28.001953 L 25.376953 30.5625 L 27.603516 28.960938 L 26.193359 24.730469 A 11.4375 11.4375 0 0 0 27.089844 23.478516 L 31.601562 23.371094 L 32.460938 20.767578 L 28.824219 18.166016 A 11.4375 11.4375 0 0 0 28.863281 17.386719 A 11.4375 11.4375 0 0 0 28.835938 16.623047 L 32.408203 13.894531 L 31.572266 11.283203 L 27.113281 11.316406 A 11.4375 11.4375 0 0 0 26.203125 10.070312 L 27.492188 5.7539062 L 25.28125 4.1328125 L 21.691406 6.7832031 A 11.4375 11.4375 0 0 0 20.224609 6.3125 L 18.730469 2.0585938 L 15.988281 2.046875 z M 17.425781 10.699219 A 6.6875 6.6875 0 0 1 24.113281 17.386719 A 6.6875 6.6875 0 0 1 17.425781 24.074219 A 6.6875 6.6875 0 0 1 10.738281 17.386719 A 6.6875 6.6875 0 0 1 17.425781 10.699219 z "
     id="path4213" />
  <g
     id="layer1"
     inkscape:label="Layer 1"
     inkscape:groupmode="layer" />
  <circle
     r="0.036286008"
     cy="17.386999"
     cx="17.425501"
     id="circle4209"
     style="opacity:1;fill:#e9afaf;fill-opacity:1;stroke:none;stroke-width:2;stroke-linecap:butt;stroke-linejoin:round;stroke-miterlimit:4;stroke-dasharray:none;stroke-dashoffset:36.54000092;stroke-opacity:1" />
</svg>
