<?xml version="1.0" encoding="UTF-8" standalone="no"?>
<!-- Created with Inkscape (http://www.inkscape.org/) -->

<svg
   xmlns:dc="http://purl.org/dc/elements/1.1/"
   xmlns:cc="http://creativecommons.org/ns#"
   xmlns:rdf="http://www.w3.org/1999/02/22-rdf-syntax-ns#"
   xmlns:svg="http://www.w3.org/2000/svg"
   xmlns="http://www.w3.org/2000/svg"
   xmlns:sodipodi="http://sodipodi.sourceforge.net/DTD/sodipodi-0.dtd"
   xmlns:inkscape="http://www.inkscape.org/namespaces/inkscape"
   width="48px"
   height="48px"
   id="svg4337"
   version="1.1"
   inkscape:version="0.91 r"
   sodipodi:docname="render_icon.svg">
  <defs
     id="defs4339" />
  <sodipodi:namedview
     id="base"
     pagecolor="#ffffff"
     bordercolor="#666666"
     borderopacity="1.0"
     inkscape:pageopacity="0.0"
     inkscape:pageshadow="2"
     inkscape:zoom="11.313708"
     inkscape:cx="30.671388"
     inkscape:cy="27.416635"
     inkscape:current-layer="layer1"
     showgrid="true"
     inkscape:grid-bbox="true"
     inkscape:document-units="px"
     inkscape:window-width="1600"
     inkscape:window-height="848"
     inkscape:window-x="0"
     inkscape:window-y="0"
     inkscape:window-maximized="1" />
  <metadata
     id="metadata4342">
    <rdf:RDF>
      <cc:Work
         rdf:about="">
        <dc:format>image/svg+xml</dc:format>
        <dc:type
           rdf:resource="http://purl.org/dc/dcmitype/StillImage" />
        <dc:title />
      </cc:Work>
    </rdf:RDF>
  </metadata>
  <g
     id="layer1"
     inkscape:label="Layer 1"
     inkscape:groupmode="layer">
    <path
       style="fill:#000000;fill-opacity:1;fill-rule:evenodd;stroke:none;stroke-width:2.5;stroke-linecap:butt;stroke-linejoin:round;stroke-miterlimit:4;stroke-dasharray:none;stroke-opacity:1"
       d="m 24,3.5996094 -16.8007812,9.5501176 0,21.611992 L 24,44.5 l 18.003906,-9.6875 0,-20.863547 -18.001953,10.246094 -0.0038,8.495617 -7.124518,-4.261093 -0.03327,-8.287813 L 24,24.178242 24,21.509078 17.942,18.052922 24,14.254782 24,21.510133 40.909,11.838 33.001953,7.2617188 Z m 0,1.4550781 0,6.5558515 -5.953125,-3.2050783 z m -8.234375,4.7421875 5.930843,3.210937 -6.210937,3.702461 -5.9425622,-3.460937 z m -7.3261719,5.594399 6.0312499,3.439453 -0.0059,8.109523 -5.9902346,-3.5625 z m 0,10.699413 6.0312499,3.640625 -0.0059,7.809704 -5.9902346,-3.462891 z m 8.4009169,5.050821 7.161583,4.339218 -0.0039,7.609118 -7.124474,-4.161485 z"
       id="path4204"
       inkscape:connector-curvature="0"
       sodipodi:nodetypes="cccccccccccccccccccccccccccccccccccccccccc" />
    <path
       sodipodi:nodetypes="ccccccc"
       inkscape:connector-curvature="0"
       id="path4270"
       d="M 32.377,8.3625 24,3.6 7.2,13.25 7.2,34.762 24,44.5 l 16.754,-9.6875 0,-10.84375"
       style="fill:none;fill-opacity:1;fill-rule:evenodd;stroke:#000000;stroke-width:2.5;stroke-linecap:butt;stroke-linejoin:round;stroke-miterlimit:4;stroke-dasharray:none;stroke-opacity:1" />
  </g>
</svg>
