<?xml version="1.0" encoding="UTF-8" standalone="no"?>
<!-- Created with Inkscape (http://www.inkscape.org/) -->

<svg
   xmlns:dc="http://purl.org/dc/elements/1.1/"
   xmlns:cc="http://creativecommons.org/ns#"
   xmlns:rdf="http://www.w3.org/1999/02/22-rdf-syntax-ns#"
   xmlns:svg="http://www.w3.org/2000/svg"
   xmlns="http://www.w3.org/2000/svg"
   xmlns:sodipodi="http://sodipodi.sourceforge.net/DTD/sodipodi-0.dtd"
   xmlns:inkscape="http://www.inkscape.org/namespaces/inkscape"
   width="48px"
   height="48px"
   id="svg4337"
   version="1.1"
   inkscape:version="0.91 r13725"
   sodipodi:docname="equipment_icon.svg">
  <defs
     id="defs4339" />
  <sodipodi:namedview
     id="base"
     pagecolor="#ffffff"
     bordercolor="#666666"
     borderopacity="1.0"
     inkscape:pageopacity="0.0"
     inkscape:pageshadow="2"
     inkscape:zoom="7.9999999"
     inkscape:cx="52.585149"
     inkscape:cy="30.443476"
     inkscape:current-layer="layer1"
     showgrid="true"
     inkscape:grid-bbox="true"
     inkscape:document-units="px"
     inkscape:window-width="1600"
     inkscape:window-height="835"
     inkscape:window-x="0"
     inkscape:window-y="0"
     inkscape:window-maximized="1" />
  <metadata
     id="metadata4342">
    <rdf:RDF>
      <cc:Work
         rdf:about="">
        <dc:format>image/svg+xml</dc:format>
        <dc:type
           rdf:resource="http://purl.org/dc/dcmitype/StillImage" />
        <dc:title></dc:title>
      </cc:Work>
    </rdf:RDF>
  </metadata>
  <g
     id="layer1"
     inkscape:label="Layer 1"
     inkscape:groupmode="layer">
    <path
       style="fill:#000000;fill-opacity:1;stroke:none;stroke-width:1.70000005;stroke-miterlimit:4;stroke-dasharray:none;stroke-opacity:1"
       d="M 7.265625 4.765625 C 5.880625 4.765625 4.765625 5.880625 4.765625 7.265625 L 4.765625 40.734375 C 4.765625 42.119375 5.880625 43.234375 7.265625 43.234375 L 40.734375 43.234375 C 42.119375 43.234375 43.234375 42.119375 43.234375 40.734375 L 43.234375 7.265625 C 43.234375 5.880625 42.119375 4.765625 40.734375 4.765625 L 7.265625 4.765625 z M 38.402344 7.078125 L 39.662109 8.3378906 L 40.921875 9.5976562 L 38.039062 15.667969 L 34.914062 15.105469 L 26.779297 23.240234 C 29.573941 25.519448 32.79422 28.183877 35.044922 30.175781 C 36.965183 31.875243 39.157508 33.671227 40.632812 35.464844 C 41.475786 36.489699 40.19419 38.26284 39.255859 39.201172 L 39.228516 39.228516 C 39.220176 39.236986 39.209472 39.247559 39.201172 39.255859 C 38.26284 40.194191 36.489698 41.475786 35.464844 40.632812 C 33.671225 39.157506 31.875243 36.965183 30.175781 35.044922 C 28.183878 32.794218 25.519448 29.573941 23.240234 26.779297 L 22.445312 27.574219 L 24.101562 29.232422 L 21.970703 31.363281 L 20.84375 30.238281 L 19.414062 31.667969 L 20.476562 32.730469 L 20.294922 32.912109 C 20.110613 33.156796 18.978602 34.651947 17.302734 36.525391 C 16.045305 37.931057 14.752204 39.329619 14.214844 39.798828 C 12.900653 40.946348 12.71452 40.91416 11.824219 40.84375 C 10.93392 40.77334 9.7393975 39.951228 8.9121094 39.087891 C 8.048773 38.260603 7.22666 37.06608 7.15625 36.175781 C 7.0858384 35.28548 7.0536514 35.099348 8.2011719 33.785156 C 8.6703803 33.247797 10.068943 31.954695 11.474609 30.697266 C 13.348053 29.021398 14.843207 27.889389 15.087891 27.705078 L 15.269531 27.523438 L 16.332031 28.585938 L 17.761719 27.15625 L 16.636719 26.029297 L 18.767578 23.898438 L 20.425781 25.554688 L 21.435547 24.544922 C 20.594973 23.502923 19.308899 21.918407 19.144531 21.712891 C 16.121598 23.575072 12.11231 23.204107 9.4921875 20.583984 C 7.3570009 18.445362 6.6408789 15.270315 7.6503906 12.421875 L 13.146484 17.919922 L 16.748047 16.703125 L 17.896484 13.125 L 12.425781 7.6523438 C 13.137559 7.4000832 13.868297 7.2563321 14.599609 7.2148438 C 16.793546 7.0903786 18.979969 7.8923437 20.583984 9.4921875 C 23.204107 12.11231 23.575073 16.121597 21.712891 19.144531 C 21.918407 19.308899 23.502922 20.594973 24.544922 21.435547 L 32.894531 13.085938 L 32.332031 9.9609375 L 38.402344 7.078125 z "
       id="rect4197" />
  </g>
</svg>
