<?xml version="1.0" encoding="UTF-8" standalone="no"?>
<!-- Created with Inkscape (http://www.inkscape.org/) -->

<svg
   xmlns:dc="http://purl.org/dc/elements/1.1/"
   xmlns:cc="http://creativecommons.org/ns#"
   xmlns:rdf="http://www.w3.org/1999/02/22-rdf-syntax-ns#"
   xmlns:svg="http://www.w3.org/2000/svg"
   xmlns="http://www.w3.org/2000/svg"
   xmlns:sodipodi="http://sodipodi.sourceforge.net/DTD/sodipodi-0.dtd"
   xmlns:inkscape="http://www.inkscape.org/namespaces/inkscape"
   width="48px"
   height="48px"
   id="svg4337"
   version="1.1"
   inkscape:version="0.91 r13725"
   sodipodi:docname="browser_icon.svg">
  <defs
     id="defs4339" />
  <sodipodi:namedview
     id="base"
     pagecolor="#ffffff"
     bordercolor="#666666"
     borderopacity="1.0"
     inkscape:pageopacity="0.0"
     inkscape:pageshadow="2"
     inkscape:zoom="11.313708"
     inkscape:cx="13.489825"
     inkscape:cy="21.80654"
     inkscape:current-layer="layer1"
     showgrid="true"
     inkscape:grid-bbox="true"
     inkscape:document-units="px"
     inkscape:window-width="1600"
     inkscape:window-height="835"
     inkscape:window-x="0"
     inkscape:window-y="0"
     inkscape:window-maximized="1" />
  <metadata
     id="metadata4342">
    <rdf:RDF>
      <cc:Work
         rdf:about="">
        <dc:format>image/svg+xml</dc:format>
        <dc:type
           rdf:resource="http://purl.org/dc/dcmitype/StillImage" />
        <dc:title />
      </cc:Work>
    </rdf:RDF>
  </metadata>
  <g
     id="layer1"
     inkscape:label="Layer 1"
     inkscape:groupmode="layer">
    <g
       transform="matrix(0.04533604,0,0,0.04533604,0.12223761,5.1680086)"
       style="clip-rule:evenodd;fill-rule:evenodd;image-rendering:optimizeQuality;shape-rendering:geometricPrecision;text-rendering:geometricPrecision"
       id="Layer_x0020_1">
      <path
         inkscape:connector-curvature="0"
         class="fil0"
         d="m 539,0 c 91,0 175,29 243,78 100,-39 170,-51 212,-42 47,10 68,39 64,82 -2,28 -18,63 -47,101 C 933,321 748,466 486,596 652,574 808,519 953,425 947,648 764,827 539,827 428,827 327,783 253,711 165,744 103,753 65,745 18,735 -3,706 0,663 2,634 19,600 48,561 126,460 310,314 573,184 417,205 270,255 133,339 168,146 337,0 539,0 Z M 197,645 c -17,-25 -31,-52 -43,-81 -16,17 -30,33 -41,47 -17,23 -28,41 -30,54 21,4 59,-2 114,-20 z M 850,140 c 20,24 38,49 53,77 17,-17 31,-33 43,-48 17,-23 28,-41 30,-53 -23,-5 -64,2 -126,24 z"
         id="path9" />
    </g>
  </g>
</svg>
