<?xml version="1.0" encoding="UTF-8" standalone="no"?>
<!-- Created with Inkscape (http://www.inkscape.org/) -->

<svg
   xmlns:dc="http://purl.org/dc/elements/1.1/"
   xmlns:cc="http://creativecommons.org/ns#"
   xmlns:rdf="http://www.w3.org/1999/02/22-rdf-syntax-ns#"
   xmlns:svg="http://www.w3.org/2000/svg"
   xmlns="http://www.w3.org/2000/svg"
   xmlns:sodipodi="http://sodipodi.sourceforge.net/DTD/sodipodi-0.dtd"
   xmlns:inkscape="http://www.inkscape.org/namespaces/inkscape"
   width="48px"
   height="48px"
   id="svg4337"
   version="1.1"
   inkscape:version="0.91 r"
   sodipodi:docname="camcorder_icon.svg">
  <defs
     id="defs4339" />
  <sodipodi:namedview
     id="base"
     pagecolor="#ffffff"
     bordercolor="#666666"
     borderopacity="1.0"
     inkscape:pageopacity="0.0"
     inkscape:pageshadow="2"
     inkscape:zoom="5.6568542"
     inkscape:cx="24"
     inkscape:cy="25.585841"
     inkscape:current-layer="layer1"
     showgrid="true"
     inkscape:grid-bbox="true"
     inkscape:document-units="px"
     inkscape:window-width="1600"
     inkscape:window-height="848"
     inkscape:window-x="0"
     inkscape:window-y="0"
     inkscape:window-maximized="1" />
  <metadata
     id="metadata4342">
    <rdf:RDF>
      <cc:Work
         rdf:about="">
        <dc:format>image/svg+xml</dc:format>
        <dc:type
           rdf:resource="http://purl.org/dc/dcmitype/StillImage" />
        <dc:title />
      </cc:Work>
    </rdf:RDF>
  </metadata>
  <g
     id="layer1"
     inkscape:label="Layer 1"
     inkscape:groupmode="layer">
    <path
       style="opacity:1;fill:#000000;fill-opacity:1;stroke:none;stroke-width:5;stroke-linecap:butt;stroke-linejoin:round;stroke-miterlimit:4;stroke-dasharray:none;stroke-dashoffset:36.54000092;stroke-opacity:1"
       d="M 13.162109 4.7128906 A 11.3125 11.0625 0 0 0 2.3808594 12.4375 L 2.3808594 19.083984 A 11.3125 11.0625 0 0 0 2.4179688 19.183594 C 2.4020852 19.30913 2.3808594 19.432515 2.3808594 19.5625 L 2.3808594 37.6875 C 2.3808594 39.3495 3.7188594 40.6875 5.3808594 40.6875 L 20.943359 40.6875 C 22.605359 40.6875 23.943359 39.3495 23.943359 37.6875 L 23.943359 26.4375 L 26.3125 26.4375 L 26.3125 28.775391 L 26.3125 29.875 C 26.3125 31.26 27.4275 32.375 28.8125 32.375 L 33.412109 32.375 L 35.9375 32.375 L 38.550781 32.375 C 42.484181 32.375 45.650391 30.769791 45.650391 28.775391 L 45.650391 25.5 L 45.650391 17.912109 L 45.650391 16.8125 C 45.650391 15.4275 44.535391 14.3125 43.150391 14.3125 L 38.550781 14.3125 L 33.412109 14.3125 L 28.8125 14.3125 C 27.4275 14.3125 26.3125 15.4275 26.3125 16.8125 L 26.3125 17.912109 L 26.3125 19.125 L 23.939453 19.125 A 11.3125 11.0625 0 0 0 23.943359 19.115234 L 23.943359 12.462891 A 11.3125 11.0625 0 0 0 13.162109 4.7128906 z M 13.193359 9.5742188 A 8.40625 8.40625 0 0 1 21.599609 17.980469 A 8.40625 8.40625 0 0 1 13.193359 26.386719 A 8.40625 8.40625 0 0 1 4.7871094 17.980469 A 8.40625 8.40625 0 0 1 13.193359 9.5742188 z M 17.449219 31.224609 A 3 3 0 0 1 20.449219 34.224609 A 3 3 0 0 1 17.449219 37.224609 A 3 3 0 0 1 14.449219 34.224609 A 3 3 0 0 1 17.449219 31.224609 z M 10.212891 33.462891 A 1.875 1.875 0 0 1 12.087891 35.337891 A 1.875 1.875 0 0 1 10.212891 37.212891 A 1.875 1.875 0 0 1 8.3378906 35.337891 A 1.875 1.875 0 0 1 10.212891 33.462891 z "
       id="rect4292" />
    <path
       style="opacity:1;fill:#000000;fill-opacity:1;stroke:none;stroke-width:5;stroke-linecap:butt;stroke-linejoin:round;stroke-miterlimit:4;stroke-dasharray:none;stroke-dashoffset:36.54000092;stroke-opacity:1"
       d="M 13.193359 11.886719 A 6.09375 6.09375 0 0 0 11.443359 12.150391 A 2.375 2.375 0 0 1 13.1875 14.4375 A 2.375 2.375 0 0 1 10.8125 16.8125 A 2.375 2.375 0 0 1 8.4375 14.4375 A 2.375 2.375 0 0 1 8.4550781 14.15625 A 6.09375 6.09375 0 0 0 7.0996094 17.980469 A 6.09375 6.09375 0 0 0 13.193359 24.074219 A 6.09375 6.09375 0 0 0 19.287109 17.980469 A 6.09375 6.09375 0 0 0 13.193359 11.886719 z "
       id="circle4325" />
  </g>
</svg>
