<?xml version="1.0" encoding="UTF-8" standalone="no"?>
<!-- Created with Inkscape (http://www.inkscape.org/) -->

<svg
   xmlns:dc="http://purl.org/dc/elements/1.1/"
   xmlns:cc="http://creativecommons.org/ns#"
   xmlns:rdf="http://www.w3.org/1999/02/22-rdf-syntax-ns#"
   xmlns:svg="http://www.w3.org/2000/svg"
   xmlns="http://www.w3.org/2000/svg"
   xmlns:sodipodi="http://sodipodi.sourceforge.net/DTD/sodipodi-0.dtd"
   xmlns:inkscape="http://www.inkscape.org/namespaces/inkscape"
   width="48px"
   height="48px"
   id="svg4337"
   version="1.1"
   inkscape:version="0.91 r"
   sodipodi:docname="camera_icon.svg">
  <defs
     id="defs4339" />
  <sodipodi:namedview
     id="base"
     pagecolor="#ffffff"
     bordercolor="#666666"
     borderopacity="1.0"
     inkscape:pageopacity="0.0"
     inkscape:pageshadow="2"
     inkscape:zoom="7.9999999"
     inkscape:cx="11.880043"
     inkscape:cy="30.007934"
     inkscape:current-layer="layer1"
     showgrid="true"
     inkscape:grid-bbox="true"
     inkscape:document-units="px"
     inkscape:window-width="1600"
     inkscape:window-height="848"
     inkscape:window-x="0"
     inkscape:window-y="0"
     inkscape:window-maximized="1" />
  <metadata
     id="metadata4342">
    <rdf:RDF>
      <cc:Work
         rdf:about="">
        <dc:format>image/svg+xml</dc:format>
        <dc:type
           rdf:resource="http://purl.org/dc/dcmitype/StillImage" />
        <dc:title />
      </cc:Work>
    </rdf:RDF>
  </metadata>
  <g
     id="layer1"
     inkscape:label="Layer 1"
     inkscape:groupmode="layer">
    <path
       style="opacity:1;fill:#000000;fill-opacity:1;stroke:none;stroke-width:5;stroke-linecap:butt;stroke-linejoin:round;stroke-miterlimit:4;stroke-dasharray:none;stroke-dashoffset:36.54000092;stroke-opacity:1"
       d="M 27.578125 17.285156 A 7.8665633 7.8665633 0 0 0 19.710938 25.152344 A 7.8665633 7.8665633 0 0 0 27.578125 33.017578 A 7.8665633 7.8665633 0 0 0 35.445312 25.152344 A 7.8665633 7.8665633 0 0 0 34.759766 21.964844 A 4.1984468 3.005204 45 0 1 34.175781 24.576172 A 4.1984468 3.005204 45 0 1 29.082031 23.732422 A 4.1984468 3.005204 45 0 1 28.238281 18.638672 A 4.1984468 3.005204 45 0 1 31.058594 18.107422 A 7.8665633 7.8665633 0 0 0 27.578125 17.285156 z "
       id="path4220" />
    <path
       style="fill:#000000;fill-rule:evenodd;stroke:#000000;stroke-width:5;stroke-linecap:butt;stroke-linejoin:round;stroke-miterlimit:4;stroke-dasharray:none;stroke-opacity:1;fill-opacity:1"
       d="M 20 12 L 17.449219 17.125 L 4.75 19.275391 L 4.75 36 L 22.259766 36 A 12.029469 12.058797 0 0 1 15.595703 25.224609 A 12.029469 12.058797 0 0 1 27.625 13.166016 A 12.029469 12.058797 0 0 1 39.65625 25.224609 A 12.029469 12.058797 0 0 1 33.017578 36 L 43.25 36 L 43.25 18.5 L 38.5 17 L 36.125 12 L 20 12 z "
       id="path4200" />
    <path
       style="opacity:1;fill:#000000;fill-opacity:1;stroke:none;stroke-width:5;stroke-linecap:butt;stroke-linejoin:round;stroke-miterlimit:4;stroke-dasharray:none;stroke-dashoffset:36.54000092;stroke-opacity:1"
       d="M 14.583984 26.5 L 14.583984 38.5 L 41.71875 38.5 L 41.71875 26.5 L 37.052734 26.5 A 9.5227757 9.5459929 0 0 1 27.625 34.769531 A 9.5227757 9.5459929 0 0 1 18.199219 26.5 L 14.583984 26.5 z "
       id="rect4212" />
    <path
       style="opacity:1;fill:#000000;fill-opacity:1;stroke:none;stroke-width:5;stroke-linecap:butt;stroke-linejoin:round;stroke-miterlimit:4;stroke-dasharray:none;stroke-dashoffset:36.54000092;stroke-opacity:1"
       d="M 5.6855469 11.837891 C 5.1315469 11.837891 4.6855469 12.283891 4.6855469 12.837891 L 4.6855469 15.630859 L 12.064453 14.273438 L 12.064453 12.837891 C 12.064453 12.283891 11.618453 11.837891 11.064453 11.837891 L 5.6855469 11.837891 z "
       id="rect4228" />
  </g>
</svg>
