<?xml version="1.0" encoding="UTF-8" standalone="no"?>
<!-- Created with Inkscape (http://www.inkscape.org/) -->

<svg
   xmlns:dc="http://purl.org/dc/elements/1.1/"
   xmlns:cc="http://creativecommons.org/ns#"
   xmlns:rdf="http://www.w3.org/1999/02/22-rdf-syntax-ns#"
   xmlns:svg="http://www.w3.org/2000/svg"
   xmlns="http://www.w3.org/2000/svg"
   xmlns:sodipodi="http://sodipodi.sourceforge.net/DTD/sodipodi-0.dtd"
   xmlns:inkscape="http://www.inkscape.org/namespaces/inkscape"
   width="48"
   height="48"
   viewBox="0 0 48.000001 48.000001"
   id="svg2"
   version="1.1"
   inkscape:version="0.91 r"
   sodipodi:docname="crosshair.svg">
  <defs
     id="defs4" />
  <sodipodi:namedview
     id="base"
     pagecolor="#ffffff"
     bordercolor="#666666"
     borderopacity="1.0"
     inkscape:pageopacity="0.0"
     inkscape:pageshadow="2"
     inkscape:zoom="11.313708"
     inkscape:cx="21.69683"
     inkscape:cy="25.996293"
     inkscape:document-units="px"
     inkscape:current-layer="layer1"
     showgrid="false"
     units="px"
     inkscape:window-width="1600"
     inkscape:window-height="848"
     inkscape:window-x="0"
     inkscape:window-y="0"
     inkscape:window-maximized="1" />
  <metadata
     id="metadata7">
    <rdf:RDF>
      <cc:Work
         rdf:about="">
        <dc:format>image/svg+xml</dc:format>
        <dc:type
           rdf:resource="http://purl.org/dc/dcmitype/StillImage" />
        <dc:title />
      </cc:Work>
    </rdf:RDF>
  </metadata>
  <g
     inkscape:label="Layer 1"
     inkscape:groupmode="layer"
     id="layer1"
     transform="translate(0,-1004.3622)">
    <path
       style="fill:#000000;fill-opacity:1;stroke:none;stroke-width:7.88600016;stroke-miterlimit:4;stroke-dasharray:none;stroke-opacity:0.44943824"
       d="m 21.37565,1010.436 a 18.133934,18.133934 0 0 0 -15.2967467,15.3019 l 2.8908854,0 A 15.273071,15.273071 0 0 1 21.37565,1013.3183 l 0,-2.8823 z m 5.2487,0 0,2.8908 a 15.273071,15.273071 0 0 1 12.41953,12.4059 l 2.882343,0 A 18.133934,18.133934 0 0 0 26.62435,1010.4411 Z m -20.5505723,20.5454 a 18.133934,18.133934 0 0 0 15.3018723,15.2968 l 0,-2.8909 A 15.273071,15.273071 0 0 1 8.9561202,1030.9865 l -2.8823425,0 z m 32.9564333,0 A 15.273071,15.273071 0 0 1 26.62435,1043.401 l 0,2.8823 a 18.133934,18.133934 0 0 0 15.296747,-15.3019 l -2.890886,0 z"
       id="path4136"
       inkscape:connector-curvature="0" />
    <rect
       style="fill:#000000;fill-opacity:1;stroke:none;stroke-width:7.88600016;stroke-miterlimit:4;stroke-dasharray:none;stroke-opacity:0.44943824"
       id="rect4140"
       width="3.4991329"
       height="8.7478323"
       x="22.250433"
       y="1040.6091" />
    <rect
       y="1007.3675"
       x="22.250433"
       height="8.7478323"
       width="3.4991329"
       id="rect4148"
       style="fill:#000000;fill-opacity:1;stroke:none;stroke-width:7.88600016;stroke-miterlimit:4;stroke-dasharray:none;stroke-opacity:0.44943824" />
    <rect
       y="36.246967"
       x="-1030.1118"
       height="8.7478323"
       width="3.4991329"
       id="rect4150"
       style="fill:#000000;fill-opacity:1;stroke:none;stroke-width:7.88600016;stroke-miterlimit:4;stroke-dasharray:none;stroke-opacity:0.44943824"
       transform="matrix(0,-1,1,0,0,0)" />
    <rect
       style="fill:#000000;fill-opacity:1;stroke:none;stroke-width:7.88600016;stroke-miterlimit:4;stroke-dasharray:none;stroke-opacity:0.44943824"
       id="rect4152"
       width="3.4991329"
       height="8.7478323"
       x="-1030.1118"
       y="3.0052021"
       transform="matrix(0,-1,1,0,0,0)" />
    <circle
       style="fill:#000000;fill-opacity:1;stroke:none;stroke-width:7.88600016;stroke-miterlimit:4;stroke-dasharray:none;stroke-opacity:0.44943824"
       id="path4154"
       cx="24"
       cy="1028.3622"
       r="2.6243496" />
  </g>
</svg>
