<?xml version="1.0" encoding="UTF-8" standalone="no"?>
<!-- Created with Inkscape (http://www.inkscape.org/) -->

<svg
   xmlns:dc="http://purl.org/dc/elements/1.1/"
   xmlns:cc="http://creativecommons.org/ns#"
   xmlns:rdf="http://www.w3.org/1999/02/22-rdf-syntax-ns#"
   xmlns:svg="http://www.w3.org/2000/svg"
   xmlns="http://www.w3.org/2000/svg"
   xmlns:sodipodi="http://sodipodi.sourceforge.net/DTD/sodipodi-0.dtd"
   xmlns:inkscape="http://www.inkscape.org/namespaces/inkscape"
   width="48"
   height="48"
   viewBox="0 0 48.000001 48.000001"
   id="svg2"
   version="1.1"
   inkscape:version="0.91 r13725"
   sodipodi:docname="crosshair.svg">
  <defs
     id="defs4" />
  <sodipodi:namedview
     id="base"
     pagecolor="#ffffff"
     bordercolor="#666666"
     borderopacity="1.0"
     inkscape:pageopacity="0.0"
     inkscape:pageshadow="2"
     inkscape:zoom="11.313708"
     inkscape:cx="34.645724"
     inkscape:cy="36.779672"
     inkscape:document-units="px"
     inkscape:current-layer="layer1"
     showgrid="false"
     units="px"
     inkscape:window-width="1920"
     inkscape:window-height="1016"
     inkscape:window-x="0"
     inkscape:window-y="27"
     inkscape:window-maximized="1" />
  <metadata
     id="metadata7">
    <rdf:RDF>
      <cc:Work
         rdf:about="">
        <dc:format>image/svg+xml</dc:format>
        <dc:type
           rdf:resource="http://purl.org/dc/dcmitype/StillImage" />
        <dc:title></dc:title>
      </cc:Work>
    </rdf:RDF>
  </metadata>
  <g
     inkscape:label="Layer 1"
     inkscape:groupmode="layer"
     id="layer1"
     transform="translate(0,-1004.3622)">
    <path
       style="fill:#000000;fill-opacity:1;stroke:none;stroke-width:7.88600016;stroke-miterlimit:4;stroke-dasharray:none;stroke-opacity:0.44943824"
       d="M 21 3.5078125 A 20.729631 20.729631 0 0 0 3.5136719 21 L 6.8183594 21 A 17.459263 17.459263 0 0 1 21 6.8027344 L 21 3.5078125 z M 27 3.5136719 L 27 6.8183594 A 17.459263 17.459263 0 0 1 41.197266 21 L 44.492188 21 A 20.729631 20.729631 0 0 0 27 3.5136719 z M 3.5078125 27 A 20.729631 20.729631 0 0 0 21 44.486328 L 21 41.181641 A 17.459263 17.459263 0 0 1 6.8027344 27 L 3.5078125 27 z M 41.181641 27 A 17.459263 17.459263 0 0 1 27 41.197266 L 27 44.492188 A 20.729631 20.729631 0 0 0 44.486328 27 L 41.181641 27 z "
       transform="translate(0,1004.3622)"
       id="path4136" />
    <rect
       style="fill:#000000;fill-opacity:1;stroke:none;stroke-width:7.88600016;stroke-miterlimit:4;stroke-dasharray:none;stroke-opacity:0.44943824"
       id="rect4140"
       width="4"
       height="10"
       x="22"
       y="1042.3622" />
    <rect
       y="1004.3622"
       x="22"
       height="10"
       width="4"
       id="rect4148"
       style="fill:#000000;fill-opacity:1;stroke:none;stroke-width:7.88600016;stroke-miterlimit:4;stroke-dasharray:none;stroke-opacity:0.44943824" />
    <rect
       y="38"
       x="-1030.3622"
       height="10"
       width="4"
       id="rect4150"
       style="fill:#000000;fill-opacity:1;stroke:none;stroke-width:7.88600016;stroke-miterlimit:4;stroke-dasharray:none;stroke-opacity:0.44943824"
       transform="matrix(0,-1,1,0,0,0)" />
    <rect
       style="fill:#000000;fill-opacity:1;stroke:none;stroke-width:7.88600016;stroke-miterlimit:4;stroke-dasharray:none;stroke-opacity:0.44943824"
       id="rect4152"
       width="4"
       height="10"
       x="-1030.3622"
       y="6.3091486e-14"
       transform="matrix(0,-1,1,0,0,0)" />
    <circle
       style="fill:#000000;fill-opacity:1;stroke:none;stroke-width:7.88600016;stroke-miterlimit:4;stroke-dasharray:none;stroke-opacity:0.44943824"
       id="path4154"
       cx="24"
       cy="1028.3622"
       r="3" />
  </g>
</svg>
