<?xml version="1.0" encoding="UTF-8" standalone="no"?>
<!-- Created with Inkscape (http://www.inkscape.org/) -->

<svg
   xmlns:dc="http://purl.org/dc/elements/1.1/"
   xmlns:cc="http://creativecommons.org/ns#"
   xmlns:rdf="http://www.w3.org/1999/02/22-rdf-syntax-ns#"
   xmlns:svg="http://www.w3.org/2000/svg"
   xmlns="http://www.w3.org/2000/svg"
   xmlns:sodipodi="http://sodipodi.sourceforge.net/DTD/sodipodi-0.dtd"
   xmlns:inkscape="http://www.inkscape.org/namespaces/inkscape"
   width="48px"
   height="48px"
   id="svg4337"
   version="1.1"
   inkscape:version="0.91 r13725"
   sodipodi:docname="diskette_icon.svg">
  <defs
     id="defs4339" />
  <sodipodi:namedview
     id="base"
     pagecolor="#ffffff"
     bordercolor="#666666"
     borderopacity="1.0"
     inkscape:pageopacity="0.0"
     inkscape:pageshadow="2"
     inkscape:zoom="7.9999999"
     inkscape:cx="12.404445"
     inkscape:cy="25.080911"
     inkscape:current-layer="layer1"
     showgrid="true"
     inkscape:grid-bbox="true"
     inkscape:document-units="px"
     inkscape:window-width="1600"
     inkscape:window-height="835"
     inkscape:window-x="0"
     inkscape:window-y="0"
     inkscape:window-maximized="1" />
  <metadata
     id="metadata4342">
    <rdf:RDF>
      <cc:Work
         rdf:about="">
        <dc:format>image/svg+xml</dc:format>
        <dc:type
           rdf:resource="http://purl.org/dc/dcmitype/StillImage" />
        <dc:title />
      </cc:Work>
    </rdf:RDF>
  </metadata>
  <g
     id="layer1"
     inkscape:label="Layer 1"
     inkscape:groupmode="layer">
    <path
       style="opacity:1;fill:#000000;fill-opacity:1;stroke:none;stroke-width:3.5;stroke-linecap:round;stroke-miterlimit:4;stroke-dasharray:none;stroke-opacity:1"
       d="M 8.5 5.96875 C 7.115 5.96875 6 7.08375 6 8.46875 L 6 39.53125 C 6 40.91625 7.115 42.03125 8.5 42.03125 L 39.5 42.03125 C 40.885 42.03125 42 40.91625 42 39.53125 L 42 12.011719 L 35.957031 5.96875 L 8.5 5.96875 z M 14.375 8.5 L 33.625 8.5 L 33.625 17.9375 C 33.625 19.3225 32.51 20.4375 31.125 20.4375 L 16.875 20.4375 C 15.49 20.4375 14.375 19.3225 14.375 17.9375 L 14.375 8.5 z M 15.65625 26.412109 L 32.34375 26.412109 C 33.72875 26.412109 34.84375 27.527109 34.84375 28.912109 L 34.84375 39.5625 L 13.15625 39.5625 L 13.15625 28.912109 C 13.15625 27.527109 14.27125 26.412109 15.65625 26.412109 z "
       id="rect4205" />
    <rect
       style="opacity:1;fill:#000000;fill-opacity:1;stroke:none;stroke-width:3.5;stroke-linecap:round;stroke-miterlimit:4;stroke-dasharray:none;stroke-opacity:1"
       id="rect4222"
       width="4.8125"
       height="9.625"
       x="26.375"
       y="9.562499" />
  </g>
</svg>
