<?xml version="1.0" encoding="UTF-8" standalone="no"?>
<!-- Created with Inkscape (http://www.inkscape.org/) -->

<svg
   xmlns:dc="http://purl.org/dc/elements/1.1/"
   xmlns:cc="http://creativecommons.org/ns#"
   xmlns:rdf="http://www.w3.org/1999/02/22-rdf-syntax-ns#"
   xmlns:svg="http://www.w3.org/2000/svg"
   xmlns="http://www.w3.org/2000/svg"
   xmlns:sodipodi="http://sodipodi.sourceforge.net/DTD/sodipodi-0.dtd"
   xmlns:inkscape="http://www.inkscape.org/namespaces/inkscape"
   width="48px"
   height="48px"
   id="svg4337"
   version="1.1"
   inkscape:version="0.91 r13725"
   sodipodi:docname="file_import_icon.svg">
  <defs
     id="defs4339" />
  <sodipodi:namedview
     id="base"
     pagecolor="#ffffff"
     bordercolor="#666666"
     borderopacity="1.0"
     inkscape:pageopacity="0.0"
     inkscape:pageshadow="2"
     inkscape:zoom="1"
     inkscape:cx="21.435351"
     inkscape:cy="68.53413"
     inkscape:current-layer="layer1"
     showgrid="true"
     inkscape:grid-bbox="true"
     inkscape:document-units="px"
     inkscape:window-width="1600"
     inkscape:window-height="835"
     inkscape:window-x="0"
     inkscape:window-y="0"
     inkscape:window-maximized="1" />
  <metadata
     id="metadata4342">
    <rdf:RDF>
      <cc:Work
         rdf:about="">
        <dc:format>image/svg+xml</dc:format>
        <dc:type
           rdf:resource="http://purl.org/dc/dcmitype/StillImage" />
        <dc:title />
      </cc:Work>
    </rdf:RDF>
  </metadata>
  <g
     id="layer1"
     inkscape:label="Layer 1"
     inkscape:groupmode="layer">
    <path
       style="fill:#000000;fill-opacity:1;fill-rule:evenodd;stroke:none;stroke-width:1px;stroke-linecap:butt;stroke-linejoin:miter;stroke-opacity:1"
       d="M 7.1601562 2.3027344 L 7.1601562 11.488281 C 10.417948 11.443704 13.256188 11.73098 15.246094 12.732422 C 18.935436 14.137901 22.052734 17.847656 22.052734 17.847656 L 27.841797 11.970703 L 32.394531 34.863281 L 9.5898438 30.234375 L 15.953125 23.869141 C 15.953125 23.869141 14.484448 22.09722 11.402344 20.777344 C 9.7417239 20.066202 8.3063623 19.685766 7.1601562 19.480469 L 7.1601562 45.625 L 40.835938 45.625 L 40.835938 17.917969 L 27.730469 8.4335938 C 32.912332 2.8375382 31.876161 2.3027232 26.914062 2.3027344 L 7.1601562 2.3027344 z "
       id="path4227" />
    <path
       style="fill:#000000;fill-opacity:1;fill-rule:evenodd;stroke:none;stroke-width:1px;stroke-linecap:butt;stroke-linejoin:miter;stroke-opacity:1"
       d="m 32.562883,2.9129899 c 0.03338,0.8290805 0.20863,2.3355766 -2.676164,5.1573226 l 10.949219,8.1269535 0,-0.294922 z"
       id="path3416"
       inkscape:connector-curvature="0"
       sodipodi:nodetypes="ccccc" />
    <path
       style="opacity:1;fill:#000000;fill-opacity:1;fill-rule:evenodd;stroke:none;stroke-width:1px;stroke-linecap:butt;stroke-linejoin:miter;stroke-opacity:1"
       d="m 6.0014931,18.136 c 0,0 2.782754,-0.375164 7.2043049,1.717718 3.04383,1.440756 5.088514,4.010424 5.088514,4.010424 l -5.102131,5.102131 16.857723,3.422048 -3.365291,-16.922811 -4.544848,4.610185 c 0,0 -2.648298,-3.788318 -6.291765,-5.516695 -3.44633,-1.63486 -6.568244,-1.59317 -9.8791762,-1.392 z"
       id="path4216"
       inkscape:connector-curvature="0"
       sodipodi:nodetypes="cscccccscc" />
  </g>
</svg>
