<?xml version="1.0" encoding="UTF-8" standalone="no"?>
<!-- Created with Inkscape (http://www.inkscape.org/) -->

<svg
   xmlns:dc="http://purl.org/dc/elements/1.1/"
   xmlns:cc="http://creativecommons.org/ns#"
   xmlns:rdf="http://www.w3.org/1999/02/22-rdf-syntax-ns#"
   xmlns:svg="http://www.w3.org/2000/svg"
   xmlns="http://www.w3.org/2000/svg"
   xmlns:sodipodi="http://sodipodi.sourceforge.net/DTD/sodipodi-0.dtd"
   xmlns:inkscape="http://www.inkscape.org/namespaces/inkscape"
   width="48px"
   height="48px"
   id="svg4337"
   version="1.1"
   inkscape:version="0.91 r13725"
   sodipodi:docname="file_format_ttf.svg">
  <defs
     id="defs4339" />
  <sodipodi:namedview
     id="base"
     pagecolor="#ffffff"
     bordercolor="#666666"
     borderopacity="1.0"
     inkscape:pageopacity="0.0"
     inkscape:pageshadow="2"
     inkscape:zoom="11.313708"
     inkscape:cx="21.313166"
     inkscape:cy="25.519792"
     inkscape:current-layer="layer1"
     showgrid="true"
     inkscape:grid-bbox="true"
     inkscape:document-units="px"
     inkscape:window-width="1600"
     inkscape:window-height="835"
     inkscape:window-x="0"
     inkscape:window-y="0"
     inkscape:window-maximized="1" />
  <metadata
     id="metadata4342">
    <rdf:RDF>
      <cc:Work
         rdf:about="">
        <dc:format>image/svg+xml</dc:format>
        <dc:type
           rdf:resource="http://purl.org/dc/dcmitype/StillImage" />
        <dc:title />
      </cc:Work>
    </rdf:RDF>
  </metadata>
  <g
     id="layer1"
     inkscape:label="Layer 1"
     inkscape:groupmode="layer">
    <path
       style="fill:#ffffff;fill-opacity:1;fill-rule:evenodd;stroke:none;stroke-width:1px;stroke-linecap:butt;stroke-linejoin:miter;stroke-opacity:1"
       d="M 7.1601562 2.3027344 L 7.1601562 45.625 L 40.835938 45.625 L 40.835938 17.917969 L 27.730469 8.4335938 C 32.912332 2.8375382 31.876161 2.3027232 26.914062 2.3027344 L 7.1601562 2.3027344 z M 10.853516 18.667969 L 19.539062 18.667969 L 19.539062 20.447266 L 16.273438 20.447266 L 16.273438 29.332031 L 14.076172 29.332031 L 14.076172 20.447266 L 10.853516 20.447266 L 10.853516 18.667969 z M 20.257812 18.667969 L 28.943359 18.667969 L 28.943359 20.447266 L 25.677734 20.447266 L 25.677734 29.332031 L 23.480469 29.332031 L 23.480469 20.447266 L 20.257812 20.447266 L 20.257812 18.667969 z M 30.203125 18.667969 L 37.146484 18.667969 L 37.146484 20.447266 L 32.400391 20.447266 L 32.400391 23.201172 L 36.619141 23.201172 L 36.619141 24.974609 L 32.400391 24.974609 L 32.400391 29.332031 L 30.203125 29.332031 L 30.203125 18.667969 z "
       id="path4227" />
    <path
       style="fill:#ffffff;fill-opacity:1;fill-rule:evenodd;stroke:none;stroke-width:1px;stroke-linecap:butt;stroke-linejoin:miter;stroke-opacity:1"
       d="m 32.562883,2.9129899 c 0.03338,0.8290805 0.20863,2.3355766 -2.676164,5.1573226 l 10.949219,8.1269535 0,-0.294922 z"
       id="path3416"
       inkscape:connector-curvature="0"
       sodipodi:nodetypes="ccccc" />
  </g>
</svg>
