<?xml version="1.0" encoding="UTF-8" standalone="no"?>
<!-- Created with Inkscape (http://www.inkscape.org/) -->

<svg
   xmlns:dc="http://purl.org/dc/elements/1.1/"
   xmlns:cc="http://creativecommons.org/ns#"
   xmlns:rdf="http://www.w3.org/1999/02/22-rdf-syntax-ns#"
   xmlns:svg="http://www.w3.org/2000/svg"
   xmlns="http://www.w3.org/2000/svg"
   xmlns:sodipodi="http://sodipodi.sourceforge.net/DTD/sodipodi-0.dtd"
   xmlns:inkscape="http://www.inkscape.org/namespaces/inkscape"
   width="48px"
   height="48px"
   id="svg4337"
   version="1.1"
   inkscape:version="0.91 r13725"
   sodipodi:docname="file_format_pdb.svg">
  <defs
     id="defs4339" />
  <sodipodi:namedview
     id="base"
     pagecolor="#ffffff"
     bordercolor="#666666"
     borderopacity="1.0"
     inkscape:pageopacity="0.0"
     inkscape:pageshadow="2"
     inkscape:zoom="11.313708"
     inkscape:cx="8.6736317"
     inkscape:cy="21.984258"
     inkscape:current-layer="layer1"
     showgrid="true"
     inkscape:grid-bbox="true"
     inkscape:document-units="px"
     inkscape:window-width="1600"
     inkscape:window-height="835"
     inkscape:window-x="0"
     inkscape:window-y="0"
     inkscape:window-maximized="1" />
  <metadata
     id="metadata4342">
    <rdf:RDF>
      <cc:Work
         rdf:about="">
        <dc:format>image/svg+xml</dc:format>
        <dc:type
           rdf:resource="http://purl.org/dc/dcmitype/StillImage" />
        <dc:title />
      </cc:Work>
    </rdf:RDF>
  </metadata>
  <g
     id="layer1"
     inkscape:label="Layer 1"
     inkscape:groupmode="layer">
    <path
       style="fill:#000000;fill-opacity:1;fill-rule:evenodd;stroke:none;stroke-width:1px;stroke-linecap:butt;stroke-linejoin:miter;stroke-opacity:1"
       d="M 7.1601562 2.3027344 L 7.1601562 45.625 L 40.835938 45.625 L 40.835938 17.917969 L 27.730469 8.4335938 C 32.912332 2.837538 31.876161 2.3027232 26.914062 2.3027344 L 7.1601562 2.3027344 z M 10.326172 19.667969 L 14.486328 19.667969 C 15.287109 19.667969 15.990234 19.814453 16.595703 20.107422 C 17.206054 20.400391 17.674804 20.817383 18.001953 21.359375 C 18.329101 21.896484 18.492187 22.508789 18.492188 23.197266 C 18.492188 24.242188 18.133789 25.068359 17.416016 25.673828 C 16.703125 26.274414 15.713867 26.574219 14.449219 26.574219 L 12.523438 26.574219 L 12.523438 30.332031 L 10.326172 30.332031 L 10.326172 19.667969 z M 19.994141 19.667969 L 23.275391 19.667969 C 24.212891 19.667969 25.049805 19.879883 25.787109 20.304688 C 26.529297 20.724609 27.108397 21.326172 27.523438 22.107422 C 27.938476 22.883789 28.144531 23.766602 28.144531 24.757812 L 28.144531 25.248047 C 28.144531 26.239258 27.939453 27.121094 27.529297 27.892578 C 27.124024 28.664063 26.550781 29.262695 25.808594 29.6875 C 25.066406 30.112305 24.229492 30.327149 23.296875 30.332031 L 19.994141 30.332031 L 19.994141 19.667969 z M 29.75 19.667969 L 33.484375 19.667969 C 34.77832 19.667969 35.760742 19.916016 36.429688 20.414062 C 37.098633 20.907226 37.431641 21.632812 37.431641 22.589844 C 37.431641 23.112304 37.297852 23.574219 37.029297 23.974609 C 36.760742 24.370117 36.386719 24.660156 35.908203 24.845703 C 36.455078 24.982422 36.884766 25.258789 37.197266 25.673828 C 37.514648 26.088867 37.673828 26.59668 37.673828 27.197266 C 37.673828 28.222656 37.347656 28.998047 36.693359 29.525391 C 36.039063 30.052735 35.105469 30.322266 33.894531 30.332031 L 29.75 30.332031 L 29.75 19.667969 z M 12.523438 21.447266 L 12.523438 24.794922 L 14.486328 24.794922 C 15.067383 24.794922 15.507813 24.658203 15.810547 24.384766 C 16.118164 24.111328 16.273437 23.720703 16.273438 23.212891 C 16.273438 22.690429 16.118164 22.267578 15.810547 21.945312 C 15.50293 21.623047 15.079101 21.457031 14.537109 21.447266 L 12.523438 21.447266 z M 22.191406 21.447266 L 22.191406 28.566406 L 23.251953 28.566406 C 24.111328 28.566406 24.768555 28.286133 25.222656 27.724609 C 25.676758 27.163086 25.908203 26.359375 25.917969 25.314453 L 25.917969 24.75 C 25.917969 23.666015 25.693359 22.845703 25.244141 22.289062 C 24.794922 21.727539 24.139649 21.447266 23.275391 21.447266 L 22.191406 21.447266 z M 31.947266 21.447266 L 31.947266 24.134766 L 33.572266 24.134766 C 34.680664 24.115232 35.234375 23.674802 35.234375 22.810547 C 35.234375 22.327148 35.09375 21.979492 34.810547 21.769531 C 34.532226 21.554687 34.089844 21.447266 33.484375 21.447266 L 31.947266 21.447266 z M 31.947266 25.6875 L 31.947266 28.566406 L 33.828125 28.566406 C 34.345703 28.566406 34.749023 28.445313 35.037109 28.201172 C 35.330079 27.952148 35.476562 27.610351 35.476562 27.175781 C 35.476562 26.199219 34.97168 25.702148 33.960938 25.6875 L 31.947266 25.6875 z "
       id="path4227" />
    <path
       style="fill:#000000;fill-opacity:1;fill-rule:evenodd;stroke:none;stroke-width:1px;stroke-linecap:butt;stroke-linejoin:miter;stroke-opacity:1"
       d="m 32.562883,2.9129899 c 0.03338,0.8290805 0.20863,2.3355766 -2.676164,5.1573226 l 10.949219,8.1269535 0,-0.294922 z"
       id="path3416"
       inkscape:connector-curvature="0"
       sodipodi:nodetypes="ccccc" />
  </g>
</svg>
