<?xml version="1.0" encoding="UTF-8" standalone="no"?>
<!-- Created with Inkscape (http://www.inkscape.org/) -->

<svg
   xmlns:dc="http://purl.org/dc/elements/1.1/"
   xmlns:cc="http://creativecommons.org/ns#"
   xmlns:rdf="http://www.w3.org/1999/02/22-rdf-syntax-ns#"
   xmlns:svg="http://www.w3.org/2000/svg"
   xmlns="http://www.w3.org/2000/svg"
   xmlns:sodipodi="http://sodipodi.sourceforge.net/DTD/sodipodi-0.dtd"
   xmlns:inkscape="http://www.inkscape.org/namespaces/inkscape"
   width="48px"
   height="48px"
   id="svg4337"
   version="1.1"
   inkscape:version="0.91 r13725"
   sodipodi:docname="focus_correction_icon.svg">
  <defs
     id="defs4339" />
  <sodipodi:namedview
     id="base"
     pagecolor="#ffffff"
     bordercolor="#666666"
     borderopacity="1.0"
     inkscape:pageopacity="0.0"
     inkscape:pageshadow="2"
     inkscape:zoom="11.313708"
     inkscape:cx="17.700491"
     inkscape:cy="26.050848"
     inkscape:current-layer="layer1"
     showgrid="true"
     inkscape:grid-bbox="true"
     inkscape:document-units="px"
     inkscape:window-width="1600"
     inkscape:window-height="835"
     inkscape:window-x="0"
     inkscape:window-y="0"
     inkscape:window-maximized="1" />
  <metadata
     id="metadata4342">
    <rdf:RDF>
      <cc:Work
         rdf:about="">
        <dc:format>image/svg+xml</dc:format>
        <dc:type
           rdf:resource="http://purl.org/dc/dcmitype/StillImage" />
        <dc:title />
      </cc:Work>
    </rdf:RDF>
  </metadata>
  <g
     id="layer1"
     inkscape:label="Layer 1"
     inkscape:groupmode="layer">
    <path
       style="opacity:1;fill:#000000;fill-opacity:1;stroke:none;stroke-width:3.5999999;stroke-miterlimit:4;stroke-dasharray:none;stroke-opacity:1"
       d="M 7.125 11.9375 L 7.125 20.332031 L 9.5625 20.332031 L 9.5625 14.394531 L 15.625 14.394531 L 15.625 11.9375 L 7.125 11.9375 z M 32.375 11.9375 L 32.375 14.394531 L 38.4375 14.394531 L 38.4375 20.332031 L 40.875 20.332031 L 40.875 11.9375 L 32.375 11.9375 z M 7.125 27.667969 L 7.125 36.0625 L 15.625 36.0625 L 15.625 33.605469 L 9.5625 33.605469 L 9.5625 27.667969 L 7.125 27.667969 z M 38.4375 27.667969 L 38.4375 33.605469 L 32.375 33.605469 L 32.375 36.0625 L 40.875 36.0625 L 40.875 27.667969 L 38.4375 27.667969 z "
       id="rect4225" />
    <path
       style="opacity:1;fill:#000000;fill-opacity:1;stroke:none;stroke-width:3.5999999;stroke-miterlimit:4;stroke-dasharray:none;stroke-opacity:1"
       d="M 6.3125 7.0839844 C 4.0965 7.0839844 2.3125 8.8679844 2.3125 11.083984 L 2.3125 36.916016 C 2.3125 39.132016 4.0965 40.916016 6.3125 40.916016 L 41.6875 40.916016 C 43.9035 40.916016 45.6875 39.132016 45.6875 36.916016 L 45.6875 11.083984 C 45.6875 8.8679844 43.9035 7.0839844 41.6875 7.0839844 L 6.3125 7.0839844 z M 7.9199219 10.771484 L 40.080078 10.771484 C 41.188078 10.771484 42.080078 11.663484 42.080078 12.771484 L 42.080078 35.228516 C 42.080078 36.336516 41.188078 37.228516 40.080078 37.228516 L 7.9199219 37.228516 C 6.8119219 37.228516 5.9199219 36.336516 5.9199219 35.228516 L 5.9199219 12.771484 C 5.9199219 11.663484 6.8119219 10.771484 7.9199219 10.771484 z "
       id="rect4220" />
    <circle
       style="opacity:1;fill:none;fill-opacity:1;stroke:#000000;stroke-width:2.5;stroke-miterlimit:4;stroke-dasharray:none;stroke-opacity:1"
       id="path4235"
       cx="24"
       cy="24"
       r="4.7791667" />
    <path
       style="opacity:1;fill:#000000;fill-opacity:1;stroke:none;stroke-width:2.5;stroke-miterlimit:4;stroke-dasharray:none;stroke-opacity:1"
       d="M 22.78125 14.28125 L 22.78125 19.380859 A 4.7791667 4.7791667 0 0 1 24 19.220703 A 4.7791667 4.7791667 0 0 1 25.21875 19.384766 L 25.21875 14.28125 L 22.78125 14.28125 z M 14.28125 22.78125 L 14.28125 25.21875 L 19.380859 25.21875 A 4.7791667 4.7791667 0 0 1 19.220703 24 A 4.7791667 4.7791667 0 0 1 19.384766 22.78125 L 14.28125 22.78125 z M 28.619141 22.78125 A 4.7791667 4.7791667 0 0 1 28.779297 24 A 4.7791667 4.7791667 0 0 1 28.615234 25.21875 L 33.71875 25.21875 L 33.71875 22.78125 L 28.619141 22.78125 z M 22.78125 28.615234 L 22.78125 33.71875 L 25.21875 33.71875 L 25.21875 28.619141 A 4.7791667 4.7791667 0 0 1 24 28.779297 A 4.7791667 4.7791667 0 0 1 22.78125 28.615234 z "
       id="rect4237" />
  </g>
</svg>
