<?xml version="1.0" encoding="UTF-8" standalone="no"?>
<!-- Created with Inkscape (http://www.inkscape.org/) -->

<svg
   xmlns:dc="http://purl.org/dc/elements/1.1/"
   xmlns:cc="http://creativecommons.org/ns#"
   xmlns:rdf="http://www.w3.org/1999/02/22-rdf-syntax-ns#"
   xmlns:svg="http://www.w3.org/2000/svg"
   xmlns="http://www.w3.org/2000/svg"
   xmlns:sodipodi="http://sodipodi.sourceforge.net/DTD/sodipodi-0.dtd"
   xmlns:inkscape="http://www.inkscape.org/namespaces/inkscape"
   sodipodi:docname="focus_icon.svg"
   inkscape:version="0.91 r13725"
   version="1.1"
   id="svg4337"
   height="48px"
   width="48px">
  <sodipodi:namedview
     inkscape:window-maximized="1"
     inkscape:window-y="0"
     inkscape:window-x="0"
     inkscape:window-height="835"
     inkscape:window-width="1600"
     inkscape:document-units="px"
     inkscape:grid-bbox="true"
     showgrid="true"
     inkscape:current-layer="svg4337"
     inkscape:cy="25.314493"
     inkscape:cx="9.9178444"
     inkscape:zoom="11.313708"
     inkscape:pageshadow="2"
     inkscape:pageopacity="0.0"
     borderopacity="1.0"
     bordercolor="#666666"
     pagecolor="#ffffff"
     id="base" />
  <defs
     id="defs4339" />
  <metadata
     id="metadata4342">
    <rdf:RDF>
      <cc:Work
         rdf:about="">
        <dc:format>image/svg+xml</dc:format>
        <dc:type
           rdf:resource="http://purl.org/dc/dcmitype/StillImage" />
        <dc:title />
      </cc:Work>
    </rdf:RDF>
  </metadata>
  <path
     style="opacity:1;fill:#000000;fill-opacity:1;stroke:none;stroke-width:4;stroke-linecap:butt;stroke-linejoin:miter;stroke-miterlimit:4;stroke-dasharray:none;stroke-dashoffset:0;stroke-opacity:1"
     d="M 7.984375 3.8925781 C 5.7165249 3.8925781 3.8925781 5.7165249 3.8925781 7.984375 L 3.8925781 14.011719 L 7.96875 14.011719 L 7.96875 7.96875 L 14.011719 7.96875 L 14.011719 3.8925781 L 7.984375 3.8925781 z M 33.988281 3.8925781 L 33.988281 7.96875 L 40.03125 7.96875 L 40.03125 14.011719 L 44.107422 14.011719 L 44.107422 7.984375 C 44.107422 5.7165249 42.283475 3.8925781 40.015625 3.8925781 L 33.988281 3.8925781 z M 3.8925781 33.988281 L 3.8925781 40.015625 C 3.8925781 42.283475 5.7165249 44.107422 7.984375 44.107422 L 14.011719 44.107422 L 14.011719 40.03125 L 7.96875 40.03125 L 7.96875 33.988281 L 3.8925781 33.988281 z M 40.03125 33.988281 L 40.03125 40.03125 L 33.988281 40.03125 L 33.988281 44.107422 L 40.015625 44.107422 C 42.283475 44.107422 44.107422 42.283475 44.107422 40.015625 L 44.107422 33.988281 L 40.03125 33.988281 z "
     id="rect4700" />
  <g
     id="layer1"
     inkscape:label="Layer 1"
     inkscape:groupmode="layer" />
  <circle
     style="opacity:1;fill:none;fill-opacity:1;stroke:#000000;stroke-width:4;stroke-linecap:butt;stroke-linejoin:miter;stroke-miterlimit:4;stroke-dasharray:none;stroke-dashoffset:0;stroke-opacity:1"
     id="path4662"
     cx="24"
     cy="24"
     r="7.9549518" />
  <path
     style="fill:none;fill-rule:evenodd;stroke:#000000;stroke-width:4;stroke-linecap:butt;stroke-linejoin:miter;stroke-miterlimit:4;stroke-dasharray:none;stroke-opacity:1"
     d="M 24,9.96998 24,15.892"
     id="path4668"
     inkscape:connector-curvature="0" />
  <path
     inkscape:connector-curvature="0"
     id="path4678"
     d="M 38.03002,24 32.108,24"
     style="fill:none;fill-rule:evenodd;stroke:#000000;stroke-width:4;stroke-linecap:butt;stroke-linejoin:miter;stroke-miterlimit:4;stroke-dasharray:none;stroke-opacity:1" />
  <path
     style="fill:none;fill-rule:evenodd;stroke:#000000;stroke-width:4;stroke-linecap:butt;stroke-linejoin:miter;stroke-miterlimit:4;stroke-dasharray:none;stroke-opacity:1"
     d="M 24,38.03002 24,32.108"
     id="path4684"
     inkscape:connector-curvature="0" />
  <path
     inkscape:connector-curvature="0"
     id="path4690"
     d="M 9.96998,24 15.892,24"
     style="fill:none;fill-rule:evenodd;stroke:#000000;stroke-width:4;stroke-linecap:butt;stroke-linejoin:miter;stroke-miterlimit:4;stroke-dasharray:none;stroke-opacity:1" />
</svg>
