<?xml version="1.0" encoding="UTF-8" standalone="no"?>
<!-- Created with Inkscape (http://www.inkscape.org/) -->

<svg
   xmlns:dc="http://purl.org/dc/elements/1.1/"
   xmlns:cc="http://creativecommons.org/ns#"
   xmlns:rdf="http://www.w3.org/1999/02/22-rdf-syntax-ns#"
   xmlns:svg="http://www.w3.org/2000/svg"
   xmlns="http://www.w3.org/2000/svg"
   xmlns:sodipodi="http://sodipodi.sourceforge.net/DTD/sodipodi-0.dtd"
   xmlns:inkscape="http://www.inkscape.org/namespaces/inkscape"
   width="32"
   height="32"
   viewBox="0 0 32 32"
   id="svg2"
   version="1.1"
   inkscape:version="0.91 r13725"
   sodipodi:docname="key.svg">
  <defs
     id="defs4" />
  <sodipodi:namedview
     id="base"
     pagecolor="#ffffff"
     bordercolor="#666666"
     borderopacity="1.0"
     inkscape:pageopacity="0.0"
     inkscape:pageshadow="2"
     inkscape:zoom="16"
     inkscape:cx="12.71875"
     inkscape:cy="16.736019"
     inkscape:document-units="px"
     inkscape:current-layer="layer1"
     showgrid="false"
     units="px"
     inkscape:window-width="1600"
     inkscape:window-height="835"
     inkscape:window-x="0"
     inkscape:window-y="0"
     inkscape:window-maximized="1" />
  <metadata
     id="metadata7">
    <rdf:RDF>
      <cc:Work
         rdf:about="">
        <dc:format>image/svg+xml</dc:format>
        <dc:type
           rdf:resource="http://purl.org/dc/dcmitype/StillImage" />
        <dc:title />
      </cc:Work>
    </rdf:RDF>
  </metadata>
  <g
     inkscape:label="Layer 1"
     inkscape:groupmode="layer"
     id="layer1"
     transform="translate(0,-1020.3622)">
    <circle
       transform="scale(-1,-1)"
       r="15"
       cy="-1036.3622"
       cx="-16"
       id="circle4168"
       style="fill:none;fill-opacity:1;stroke:#000000;stroke-width:2;stroke-miterlimit:4;stroke-dasharray:none;stroke-opacity:1" />
    <path
       style="fill:#000000;fill-opacity:1;stroke:none;stroke-width:1.70000005;stroke-miterlimit:4;stroke-dasharray:none;stroke-opacity:1"
       id="path4137"
       d="m 9.7410318,1028.8668 c 0.2614692,0.1192 0.4575312,0.336 0.6462502,0.5461 0.167777,0.1985 0.330058,0.4027 0.485682,0.611 0.119544,0.1826 0.250317,0.3565 0.36006,0.5453 0.138299,0.2238 0.26183,0.4558 0.391574,0.6845 0.152436,0.2347 0.285107,0.4811 0.427957,0.7216 0.139218,0.233 0.287782,0.4603 0.420214,0.6974 0.124508,0.2211 0.267854,0.4303 0.417986,0.6345 0.153377,0.1897 0.287059,0.3939 0.424897,0.5948 0.139772,0.1923 0.289923,0.3765 0.424038,0.5729 0.132277,0.1871 0.261768,0.3761 0.392745,0.5641 0.16342,0.2323 0.315624,0.4721 0.477845,0.7053 0.152261,0.208 0.306702,0.4144 0.460369,0.6214 0.133943,0.168 0.250671,0.3485 0.381078,0.519 0.143868,0.2035 0.306622,0.3921 0.473511,0.5768 0.13656,0.1507 0.283893,0.2965 0.38446,0.4746 0.07057,0.1545 0.172684,0.2903 0.258311,0.4361 0.102262,0.147 0.218576,0.2837 0.325616,0.4272 0.115896,0.1469 0.227697,0.2963 0.322489,0.4578 0.08511,0.1552 0.193896,0.2952 0.29962,0.4366 0.115667,0.1413 0.230816,0.2829 0.344878,0.4255 0.1214,0.1539 0.232195,0.3147 0.341323,0.4773 0.121196,0.1792 0.249879,0.3529 0.37816,0.527 0.111261,0.135 0.199645,0.286 0.296586,0.4309 0.08112,0.1241 0.08417,0.204 -0.02037,0.3103 -0.117626,0.1013 -0.236522,0.2011 -0.346653,0.3106 -0.123152,0.1132 -0.176469,0.2588 -0.222195,0.4149 -0.04441,0.1687 -0.05617,0.3429 -0.06248,0.5164 -0.0049,0.1544 -0.0028,0.3089 -0.0033,0.4634 0.0027,0.1576 -0.0041,0.3155 0.0058,0.4729 0.0207,0.166 0.108711,0.3083 0.182282,0.4545 0.07658,0.1691 0.182211,0.3202 0.28595,0.473 0.09847,0.159 0.220934,0.2923 0.3674,0.4072 0.200429,0.1602 0.426294,0.2742 0.659117,0.3786 0.229061,0.08 0.448195,0.1851 0.680796,0.255 0.213986,0.059 0.430203,0.1039 0.650759,0.1287 0.111791,0 0.227556,0.028 0.338613,0 0.0062,-0 0.132346,-0.043 0.138857,-0.045 0.141031,-0.063 0.275971,-0.1377 0.416143,-0.2031 -0.04696,0.028 0.222692,-0.122 0.167765,-0.09 -2.324036,1.3476 1.919992,-1.1022 -0.41803,0.2403 0.188428,-0.1096 0.353741,-0.2515 0.513725,-0.3982 0.128748,-0.1093 0.255729,-0.2182 0.360865,-0.351 0.09024,-0.1248 0.146946,-0.266 0.178835,-0.4157 0.02834,-0.1522 0.02201,-0.3075 0.0334,-0.4611 0.03406,-0.1584 0.07445,-0.3156 0.113907,-0.4728 0.03868,-0.1692 0.06261,-0.3415 0.09029,-0.5128 0.02467,-0.1671 0.02914,-0.336 0.0528,-0.5032 0.02711,-0.1535 0.03739,-0.3088 0.04474,-0.4643 0.0094,-0.178 0.01574,-0.267 -0.09024,-0.4152 -0.122186,-0.1402 -0.252934,-0.2744 -0.394707,-0.3949 -0.127227,-0.091 -0.26118,-0.1749 -0.408124,-0.2303 -0.148487,-0.073 -0.293175,-0.1517 -0.448458,-0.2106 -0.183005,-0.056 -0.353395,-0.1426 -0.531459,-0.2107 -0.141845,-0.049 -0.293043,-0.055 -0.44171,-0.06 -0.155374,-0 -0.310787,-0 -0.466173,-7e-4 -0.172236,0.01 -0.34773,0.025 -0.517271,0.059 -0.154078,0.023 -0.299951,0.076 -0.452533,0.106 -0.168348,0.064 -0.341885,0.1135 -0.512213,0.1722 -0.199801,0.072 -0.410936,0.1044 -0.608754,0.181 -0.1468,0.06 -0.290367,0.1246 -0.428634,0.2023 0,0 0.712395,-0.5727 0.712395,-0.5727 l 0,0 c 0.141692,-0.071 0.286756,-0.1345 0.435231,-0.1902 0.203233,-0.065 0.412454,-0.1099 0.613347,-0.1829 0.173976,-0.058 0.347535,-0.1169 0.523513,-0.1678 0.149881,-0.035 0.297801,-0.08 0.451044,-0.1 0.175074,-0.024 0.351561,-0.049 0.528563,-0.049 0.156213,-3e-4 0.312495,-0 0.468627,0 0.156095,0.01 0.313463,0.025 0.459018,0.086 0.174612,0.075 0.347276,0.153 0.528347,0.2117 0.154629,0.063 0.302395,0.1398 0.454177,0.209 0.14975,0.068 0.290892,0.1547 0.418781,0.2586 0.144107,0.1288 0.285277,0.2626 0.409032,0.4114 0.115013,0.162 0.134712,0.271 0.119733,0.4678 -0.004,0.1585 -0.01409,0.3174 -0.04019,0.4739 -0.02762,0.1675 -0.03359,0.336 -0.05531,0.5043 -0.02471,0.1739 -0.05227,0.3473 -0.08479,0.5196 -0.03787,0.1539 -0.07066,0.3092 -0.117848,0.4605 -0.02169,0.1551 -0.0046,0.3131 -0.03095,0.4681 -0.02626,0.1623 -0.0767,0.3114 -0.159823,0.4543 -0.103114,0.1407 -0.218634,0.2664 -0.361843,0.3684 -0.159244,0.1501 -0.320455,0.2994 -0.506667,0.4161 -2.926587,1.6943 0.500276,-0.2882 -0.276365,0.1604 -0.290472,0.1678 -0.580845,0.3357 -0.872104,0.5021 -0.04712,0.027 -0.122906,0.064 -0.172122,0.088 -0.14077,0.069 -0.277259,0.1483 -0.428062,0.1934 -0.164444,0.041 -0.329219,0.032 -0.496415,0.01 -0.221399,-0.033 -0.439821,-0.082 -0.654848,-0.145 -0.233114,-0.075 -0.455367,-0.1784 -0.683798,-0.2666 -0.238232,-0.1099 -0.471105,-0.2304 -0.67863,-0.3929 -0.150744,-0.1228 -0.281258,-0.2638 -0.383823,-0.43 -0.103765,-0.157 -0.21201,-0.3111 -0.292306,-0.4823 -0.07965,-0.1561 -0.170015,-0.3091 -0.19901,-0.4852 -0.01784,-0.1591 -0.008,-0.3193 -0.01068,-0.4792 -0.0013,-0.1556 -0.0012,-0.3112 0.002,-0.4667 0.0067,-0.1796 0.01591,-0.36 0.05598,-0.5358 0.03834,-0.1643 0.07982,-0.3309 0.201353,-0.4552 0.101527,-0.1169 0.220595,-0.2167 0.338779,-0.3162 0.08945,-0.07 0.158726,-0.07 0.08266,-0.1943 -0.09565,-0.1441 -0.180729,-0.2954 -0.289435,-0.4307 -0.12723,-0.1763 -0.258506,-0.3494 -0.379976,-0.5298 -0.108162,-0.16 -0.22112,-0.3161 -0.339238,-0.4689 -0.117303,-0.1414 -0.229723,-0.2869 -0.346555,-0.4287 -0.108515,-0.1438 -0.220695,-0.2858 -0.305964,-0.4453 -0.09192,-0.1586 -0.203165,-0.3045 -0.31587,-0.4488 -0.111237,-0.1447 -0.228596,-0.2851 -0.33245,-0.435 -0.08792,-0.1454 -0.188073,-0.2835 -0.259555,-0.4383 -0.09557,-0.1722 -0.237759,-0.314 -0.36743,-0.4607 -0.169037,-0.186 -0.327546,-0.3812 -0.477854,-0.5826 -0.132022,-0.1704 -0.252493,-0.3488 -0.38361,-0.52 -0.15181,-0.209 -0.301403,-0.4196 -0.453451,-0.6284 -0.161216,-0.2341 -0.318849,-0.4706 -0.485994,-0.7005 -0.130007,-0.1887 -0.260436,-0.3771 -0.390518,-0.5658 -0.135515,-0.1957 -0.287043,-0.3791 -0.425548,-0.5725 -0.13569,-0.201 -0.270258,-0.4031 -0.420979,-0.5934 -0.152041,-0.2077 -0.297641,-0.4197 -0.424541,-0.6441 -0.130076,-0.2377 -0.27623,-0.4652 -0.417146,-0.6964 -0.14094,-0.2419 -0.276253,-0.487 -0.425557,-0.7239 -0.132872,-0.2267 -0.258193,-0.4577 -0.398986,-0.6797 -0.108681,-0.186 -0.237255,-0.3574 -0.356707,-0.5364 -0.1485398,-0.209 -0.3055856,-0.4128 -0.4697455,-0.6096 -0.1816344,-0.201 -0.374374,-0.412 -0.6416264,-0.493 0,0 0.7673507,-0.5207 0.7673507,-0.5207 z"
       inkscape:connector-curvature="0" />
    <path
       style="fill:#000000;fill-opacity:1;stroke:none;stroke-width:1.70000005;stroke-miterlimit:4;stroke-dasharray:none;stroke-opacity:1"
       id="path4139"
       d="m 9.4633011,1029.6828 c -0.2824807,0.1398 -0.7350529,0.3992 0.5211222,-0.3089 0.034665,-0.02 -0.067668,0.042 -0.1006493,0.064 -0.048002,0.032 -0.1510557,0.109 -0.1971327,0.1429 -0.1693689,0.1261 -0.3404547,0.2503 -0.5159361,0.3679 -0.2253031,0.1487 -0.437168,0.3164 -0.648684,0.4838 -0.1814185,0.1455 -0.3668095,0.2858 -0.5518932,0.4266 -0.1662512,0.1251 -0.3291968,0.2545 -0.4925398,0.3834 -0.1413738,0.1121 -0.2880245,0.2172 -0.433477,0.3239 0,0 -0.8506964,0.3378 -0.8506964,0.3378 l 0,0 c 0.1440578,-0.1081 0.2926148,-0.2096 0.4342922,-0.3208 0.1627278,-0.1312 0.3285282,-0.2585 0.4934731,-0.3868 0.1889506,-0.1391 0.373853,-0.2836 0.5591542,-0.4274 0.2119599,-0.1636 0.4175118,-0.3357 0.6380635,-0.488 0.1790506,-0.1137 0.3501298,-0.2399 0.5214694,-0.3646 0.095721,-0.07 0.1890795,-0.1541 0.2914954,-0.2146 0.3488262,-0.206 0.6952133,-0.4094 1.0506714,-0.6008 0,0 -0.7187329,0.5814 -0.7187329,0.5814 z"
       inkscape:connector-curvature="0" />
    <path
       style="fill:#000000;fill-opacity:1;stroke:none;stroke-width:1.70000005;stroke-miterlimit:4;stroke-dasharray:none;stroke-opacity:1"
       id="path4141"
       d="m 7.8571433,1033.255 c 0.1527741,-0.1229 0.2924432,-0.261 0.4410913,-0.3888 0.157111,-0.1204 0.3163858,-0.2382 0.487173,-0.3386 0.4113865,-0.2558 0.8316188,-0.4898 1.2760184,-0.6783 0.204059,-0.088 0.418328,-0.15 0.616378,-0.2522 0.02614,-0.016 0.05198,-0.033 0.07842,-0.049 0.437629,-0.2602 -0.9892047,0.5971 -0.572925,0.3256 0.02152,-0.014 0.04282,-0.028 0.06423,-0.043 0,0 0.858217,-0.3337 0.858217,-0.3337 l 0,0 c -0.376711,0.2308 -0.752939,0.4651 -1.1447585,0.6707 -0.2027942,0.09 -0.4152865,0.1554 -0.616518,0.249 -0.3377059,0.1567 -1.1252277,0.5452 0.2985212,-0.2192 -0.1725155,0.099 -0.3363749,0.207 -0.4962226,0.3256 -0.1501537,0.1207 -0.2887233,0.2545 -0.4291596,0.3858 0,0 -0.8604742,0.3454 -0.8604742,0.3454 z"
       inkscape:connector-curvature="0" />
  </g>
</svg>
