<?xml version="1.0" encoding="UTF-8" standalone="no"?>
<!-- Created with Inkscape (http://www.inkscape.org/) -->

<svg
   xmlns:dc="http://purl.org/dc/elements/1.1/"
   xmlns:cc="http://creativecommons.org/ns#"
   xmlns:rdf="http://www.w3.org/1999/02/22-rdf-syntax-ns#"
   xmlns:svg="http://www.w3.org/2000/svg"
   xmlns="http://www.w3.org/2000/svg"
   xmlns:sodipodi="http://sodipodi.sourceforge.net/DTD/sodipodi-0.dtd"
   xmlns:inkscape="http://www.inkscape.org/namespaces/inkscape"
   width="48px"
   height="48px"
   id="svg4337"
   version="1.1"
   inkscape:version="0.91 r13725"
   sodipodi:docname="material_icon.svg">
  <defs
     id="defs4339" />
  <sodipodi:namedview
     id="base"
     pagecolor="#ffffff"
     bordercolor="#666666"
     borderopacity="1.0"
     inkscape:pageopacity="0.0"
     inkscape:pageshadow="2"
     inkscape:zoom="8"
     inkscape:cx="1.0180484"
     inkscape:cy="24.185995"
     inkscape:current-layer="layer1"
     showgrid="true"
     inkscape:grid-bbox="true"
     inkscape:document-units="px"
     inkscape:window-width="1600"
     inkscape:window-height="835"
     inkscape:window-x="0"
     inkscape:window-y="0"
     inkscape:window-maximized="1" />
  <metadata
     id="metadata4342">
    <rdf:RDF>
      <cc:Work
         rdf:about="">
        <dc:format>image/svg+xml</dc:format>
        <dc:type
           rdf:resource="http://purl.org/dc/dcmitype/StillImage" />
        <dc:title />
      </cc:Work>
    </rdf:RDF>
  </metadata>
  <g
     id="layer1"
     inkscape:label="Layer 1"
     inkscape:groupmode="layer">
    <path
       style="opacity:1;fill:#000000;fill-opacity:1;stroke:none;stroke-width:2.5;stroke-linecap:round;stroke-miterlimit:4;stroke-dasharray:none;stroke-dashoffset:0;stroke-opacity:1"
       d="M 24 3.5585938 A 20.441637 20.441637 0 0 0 11.136719 8.125 L 13 8.125 L 13 10.875 L 10.875 10.875 L 10.875 13 L 8.125 13 L 8.125 11.148438 A 20.441637 20.441637 0 0 0 3.5585938 24 A 20.441637 20.441637 0 0 0 8.125 36.863281 L 8.125 35 L 10.875 35 L 10.875 37.125 L 13 37.125 L 13 39.875 L 11.148438 39.875 A 20.441637 20.441637 0 0 0 24 44.441406 A 20.441637 20.441637 0 0 0 36.863281 39.875 L 35 39.875 L 35 37.125 L 37.125 37.125 L 37.125 35 L 39.875 35 L 39.875 36.851562 A 20.441637 20.441637 0 0 0 44.441406 24 A 20.441637 20.441637 0 0 0 39.875 11.136719 L 39.875 13 L 37.125 13 L 37.125 10.875 L 35 10.875 L 35 8.125 L 36.851562 8.125 A 20.441637 20.441637 0 0 0 24 3.5585938 z M 22.625 6 L 25.375 6 L 25.375 8.125 L 27.5 8.125 L 27.5 10.875 L 25.375 10.875 L 25.375 13 L 22.625 13 L 22.625 10.875 L 20.5 10.875 L 20.5 8.125 L 22.625 8.125 L 22.625 6 z M 8.125 20.5 L 10.875 20.5 L 10.875 22.625 L 13 22.625 L 13 25.375 L 10.875 25.375 L 10.875 27.5 L 8.125 27.5 L 8.125 25.375 L 6 25.375 L 6 22.625 L 8.125 22.625 L 8.125 20.5 z M 22.625 20.5 L 25.375 20.5 L 25.375 22.625 L 27.5 22.625 L 27.5 25.375 L 25.375 25.375 L 25.375 27.5 L 22.625 27.5 L 22.625 25.375 L 20.5 25.375 L 20.5 22.625 L 22.625 22.625 L 22.625 20.5 z M 37.125 20.5 L 39.875 20.5 L 39.875 22.625 L 42 22.625 L 42 25.375 L 39.875 25.375 L 39.875 27.5 L 37.125 27.5 L 37.125 25.375 L 35 25.375 L 35 22.625 L 37.125 22.625 L 37.125 20.5 z M 22.625 35 L 25.375 35 L 25.375 37.125 L 27.5 37.125 L 27.5 39.875 L 25.375 39.875 L 25.375 42 L 22.625 42 L 22.625 39.875 L 20.5 39.875 L 20.5 37.125 L 22.625 37.125 L 22.625 35 z "
       id="circle4234" />
    <circle
       style="opacity:1;fill:none;fill-opacity:1;stroke:#000000;stroke-width:2.5;stroke-linecap:round;stroke-miterlimit:4;stroke-dasharray:none;stroke-dashoffset:0;stroke-opacity:1"
       id="path4210"
       cx="24"
       cy="24"
       r="20.441637" />
  </g>
</svg>
