<?xml version="1.0" encoding="UTF-8" standalone="no"?>
<!-- Created with Inkscape (http://www.inkscape.org/) -->

<svg
   xmlns:dc="http://purl.org/dc/elements/1.1/"
   xmlns:cc="http://creativecommons.org/ns#"
   xmlns:rdf="http://www.w3.org/1999/02/22-rdf-syntax-ns#"
   xmlns:svg="http://www.w3.org/2000/svg"
   xmlns="http://www.w3.org/2000/svg"
   xmlns:sodipodi="http://sodipodi.sourceforge.net/DTD/sodipodi-0.dtd"
   xmlns:inkscape="http://www.inkscape.org/namespaces/inkscape"
   width="48px"
   height="48px"
   id="svg4337"
   version="1.1"
   inkscape:version="0.91 r13725"
   sodipodi:docname="project_icon.svg">
  <defs
     id="defs4339" />
  <sodipodi:namedview
     id="base"
     pagecolor="#ffffff"
     bordercolor="#666666"
     borderopacity="1.0"
     inkscape:pageopacity="0.0"
     inkscape:pageshadow="2"
     inkscape:zoom="10.89836"
     inkscape:cx="18.314732"
     inkscape:cy="29.046212"
     inkscape:current-layer="layer1"
     showgrid="true"
     inkscape:grid-bbox="true"
     inkscape:document-units="px"
     inkscape:window-width="1600"
     inkscape:window-height="849"
     inkscape:window-x="0"
     inkscape:window-y="0"
     inkscape:window-maximized="1" />
  <metadata
     id="metadata4342">
    <rdf:RDF>
      <cc:Work
         rdf:about="">
        <dc:format>image/svg+xml</dc:format>
        <dc:type
           rdf:resource="http://purl.org/dc/dcmitype/StillImage" />
        <dc:title />
      </cc:Work>
    </rdf:RDF>
  </metadata>
  <g
     id="layer1"
     inkscape:label="Layer 1"
     inkscape:groupmode="layer">
    <path
       style="fill:#000000;fill-opacity:1;stroke:none;stroke-width:2.5;stroke-miterlimit:4;stroke-dasharray:none;stroke-opacity:1"
       d="M 8.5839844 2.3164062 C 7.0881843 2.3164062 5.8828125 3.519825 5.8828125 5.015625 L 5.8828125 10.195312 L 8.3613281 10.195312 L 8.3613281 6.1484375 C 8.3613281 5.3728375 8.9861187 4.7480469 9.7617188 4.7480469 L 34.603516 4.7480469 C 35.379116 4.7480469 36.003906 5.3728375 36.003906 6.1484375 L 36.003906 10.195312 L 38.480469 10.195312 L 38.480469 5.015625 C 38.480469 3.519825 37.27705 2.3164062 35.78125 2.3164062 L 8.5839844 2.3164062 z "
       id="rect4347" />
    <path
       style="fill:#000000;fill-opacity:1;stroke:none;stroke-width:5;stroke-miterlimit:4;stroke-dasharray:none;stroke-opacity:1"
       d="M 7.7050781 7.1894531 C 6.7078782 7.1894531 5.9042969 7.9930344 5.9042969 8.9902344 L 5.9042969 43.734375 C 5.9042969 44.731575 6.7078782 45.535156 7.7050781 45.535156 L 32.976562 45.535156 C 33.973762 45.535156 34.777344 44.731575 34.777344 43.734375 L 34.777344 8.9902344 C 34.777344 7.9930344 33.973762 7.1894531 32.976562 7.1894531 L 7.7050781 7.1894531 z M 13.138672 11.990234 L 27.671875 11.990234 C 28.336675 11.990234 28.873047 12.526606 28.873047 13.191406 L 28.873047 16.824219 C 28.873047 17.489019 28.336675 18.025391 27.671875 18.025391 L 13.138672 18.025391 C 12.473872 18.025391 11.9375 17.489019 11.9375 16.824219 L 11.9375 13.191406 C 11.9375 12.526606 12.473872 11.990234 13.138672 11.990234 z "
       id="rect4340" />
    <rect
       style="fill:none;fill-opacity:1;stroke:#000000;stroke-width:2.5;stroke-miterlimit:4;stroke-dasharray:none;stroke-opacity:1"
       id="rect4345"
       width="9.0318642"
       height="31.145283"
       x="30.535213"
       y="10.818604" />
  </g>
</svg>
