<?xml version="1.0" encoding="UTF-8" standalone="no"?>
<!-- Created with Inkscape (http://www.inkscape.org/) -->

<svg
   xmlns:dc="http://purl.org/dc/elements/1.1/"
   xmlns:cc="http://creativecommons.org/ns#"
   xmlns:rdf="http://www.w3.org/1999/02/22-rdf-syntax-ns#"
   xmlns:svg="http://www.w3.org/2000/svg"
   xmlns="http://www.w3.org/2000/svg"
   xmlns:sodipodi="http://sodipodi.sourceforge.net/DTD/sodipodi-0.dtd"
   xmlns:inkscape="http://www.inkscape.org/namespaces/inkscape"
   width="48px"
   height="48px"
   id="svg4337"
   version="1.1"
   inkscape:version="0.91 r13725"
   sodipodi:docname="QChromosome_icon.svg">
  <defs
     id="defs4339" />
  <sodipodi:namedview
     id="base"
     pagecolor="#ffffff"
     bordercolor="#666666"
     borderopacity="1.0"
     inkscape:pageopacity="0.0"
     inkscape:pageshadow="2"
     inkscape:zoom="16"
     inkscape:cx="13.908938"
     inkscape:cy="20.96313"
     inkscape:current-layer="layer1"
     showgrid="true"
     inkscape:grid-bbox="true"
     inkscape:document-units="px"
     inkscape:window-width="1600"
     inkscape:window-height="835"
     inkscape:window-x="0"
     inkscape:window-y="0"
     inkscape:window-maximized="1" />
  <metadata
     id="metadata4342">
    <rdf:RDF>
      <cc:Work
         rdf:about="">
        <dc:format>image/svg+xml</dc:format>
        <dc:type
           rdf:resource="http://purl.org/dc/dcmitype/StillImage" />
        <dc:title></dc:title>
      </cc:Work>
    </rdf:RDF>
  </metadata>
  <g
     id="layer1"
     inkscape:label="Layer 1"
     inkscape:groupmode="layer">
    <rect
       style="opacity:1;fill:#ffffff;fill-opacity:1;stroke:none;stroke-width:0.5;stroke-miterlimit:4;stroke-dasharray:none;stroke-opacity:1"
       id="rect4711"
       width="13.4375"
       height="23.9375"
       x="6.4375"
       y="11" />
    <path
       style="opacity:1;fill:#0271bc;fill-opacity:1;stroke:none;stroke-width:0.5;stroke-miterlimit:4;stroke-dasharray:none;stroke-opacity:1"
       d="m 4.4082031,5.9882812 c -1.108,10e-8 -2,0.8086744 -2,1.8125 0,1.0038257 0.892,1.8125 2,1.8125 l 0.3847657,0 0,9.5273438 -0.5078126,0 c -1.1079999,0 -1.9999997,0.892 -2,2 l 0,3.335937 c 3e-7,1.108001 0.8920001,2 2,2 l 0.5078126,0 0,14.722657 c 0,1.108 0.8086743,2 1.8125,2 1.0038256,0 1.8125,-0.892 1.8125,-2 l 0,-5.220703 8.1992192,0 0,1.386718 c 0,0.554 0.446,1 1,1 l 7.822812,0 c 0.554,0 1,-0.446 1,-1 l 0,-1.386718 2.177188,0 0,1.386718 c 0,0.554 0.446,1 1,1 l 7.822812,0 c 0.554,0 1.039847,-0.447435 1,-1 l 0,-1.386718 5.345156,0 c 1.108,0 2,-0.892 2,-2 l 0,-22.427735 c 0,-1.108 -0.892,-1.9999998 -2,-1.9999998 l -35.3671872,0 0,-1.5625 c -1e-7,-1.108 -0.8086744,-2 -1.8125,-2 -0.061708,0 -0.1196009,0.012947 -0.1796876,0.019531 -0.072736,-0.0072 -0.1438298,-0.019531 -0.21875,-0.019531 z M 10.408313,12.093 l 4.317687,0 c 1.108,0 2,0.892 2,2 l 0,0.639 c 0,1.108 -0.892,2 -2,2 l -4.317687,0 c -0.8872733,0 -1.6275125,-0.576174 -1.8906256,-1.373047 l 0,-1.892906 C 8.7808005,12.669174 9.5210397,12.093 10.408313,12.093 Z M 8.518,19.294 l 6.21,0 c 1.108,0 2,0.892 2,2 l 0,3.037 c 0,1.108 -0.892,2 -2,2 l -6.21,0 z m 1.990313,9.599 4.217687,0 c 1.108,0 2,0.892 2,2 l 0,0.637 c 0,1.108 -0.892,2 -2,2 l -4.217687,0 c -0.8872728,0 -1.6275123,-0.576174 -1.8906256,-1.373047 l 0,-1.890906 C 8.8808007,29.469174 9.6210402,28.893 10.508313,28.893 Z"
       id="rect4673"
       inkscape:connector-curvature="0"
       sodipodi:nodetypes="sssccsssscsssccssssccsssscsssscsscssssssssccscssssccssssssccs" />
    <path
       style="fill:#ffffff;fill-opacity:1;fill-rule:evenodd;stroke:none;stroke-width:1px;stroke-linecap:butt;stroke-linejoin:miter;stroke-opacity:1"
       d="m 32.361026,22.595384 1.533534,3.305005 1.282358,1.440974 1.203032,1.203059 1.017952,0.951823 0.05281,1.612914 -0.76677,0.978237 -1.374889,0.515604 -1.956578,-0.356965 -1.136931,-1.269161 -1.084054,-2.207717 -0.991509,-2.260665 -0.568466,-2.339974 -0.317278,-1.626055 -0.436284,-0.674233 -0.819647,-0.449513 -1.507098,-0.515549 -1.295576,-0.713854 -1.189809,-0.899 -0.753551,-1.335257 0.07932,-1.573165 1.216256,-0.846106 1.467437,0.06609 0.859308,0.938621 0.674226,0.912202 0.727111,0.819631 0.978291,0.528833 -0.568465,-1.08408 -0.594907,-0.885727 -0.68745,-0.68744 -0.475917,-0.925408 0,-1.084064 0.898966,-0.832866 1.216257,-0.2115 0.978287,0.449459 0.885753,1.084036 0.634568,1.560024 0.363116,1.65247 0.158748,1.302326 0.482885,0.416305 1.520321,0.555242 1.454215,0.515604 1.824381,0.938621 1.745056,1.216267 1.586418,1.335197 0.83287,1.811202 -0.423055,1.665736 -1.189815,0.991504 -1.520316,-0.02668 -1.070828,-0.793217 -0.978293,-1.533544 -1.044393,-1.718571 -1.705401,-1.348464 z"
       id="path4300"
       inkscape:connector-curvature="0"
       sodipodi:nodetypes="cccccccccccccccccccccccccccccccccccccccccccccccccccccc" />
  </g>
</svg>
