<?xml version="1.0" encoding="UTF-8" standalone="no"?>
<!-- Created with Inkscape (http://www.inkscape.org/) -->

<svg
   xmlns:dc="http://purl.org/dc/elements/1.1/"
   xmlns:cc="http://creativecommons.org/ns#"
   xmlns:rdf="http://www.w3.org/1999/02/22-rdf-syntax-ns#"
   xmlns:svg="http://www.w3.org/2000/svg"
   xmlns="http://www.w3.org/2000/svg"
   xmlns:sodipodi="http://sodipodi.sourceforge.net/DTD/sodipodi-0.dtd"
   xmlns:inkscape="http://www.inkscape.org/namespaces/inkscape"
   width="48px"
   height="48px"
   id="svg4337"
   version="1.1"
   inkscape:version="0.91 r13725"
   sodipodi:docname="QChromosome_icon.svg">
  <defs
     id="defs4339" />
  <sodipodi:namedview
     id="base"
     pagecolor="#ffffff"
     bordercolor="#666666"
     borderopacity="1.0"
     inkscape:pageopacity="0.0"
     inkscape:pageshadow="2"
     inkscape:zoom="1"
     inkscape:cx="-5.5047502"
     inkscape:cy="31.511787"
     inkscape:current-layer="layer1"
     showgrid="true"
     inkscape:grid-bbox="true"
     inkscape:document-units="px"
     inkscape:window-width="1600"
     inkscape:window-height="835"
     inkscape:window-x="0"
     inkscape:window-y="0"
     inkscape:window-maximized="1" />
  <metadata
     id="metadata4342">
    <rdf:RDF>
      <cc:Work
         rdf:about="">
        <dc:format>image/svg+xml</dc:format>
        <dc:type
           rdf:resource="http://purl.org/dc/dcmitype/StillImage" />
        <dc:title />
      </cc:Work>
    </rdf:RDF>
  </metadata>
  <g
     id="layer1"
     inkscape:label="Layer 1"
     inkscape:groupmode="layer">
    <path
       style="fill:#0271bc;fill-opacity:1;fill-rule:evenodd;stroke:#ffffff;stroke-width:1;stroke-linecap:butt;stroke-linejoin:miter;stroke-miterlimit:4;stroke-dasharray:none;stroke-opacity:1"
       d="m 23.95947,23.48515 3.143627,6.775009 2.628737,2.953887 2.466124,2.466179 2.086724,1.951165 0.108256,3.30635 -1.57182,2.005311 L 30.0027,44 25.991864,43.268249 23.661242,40.666565 21.439014,36.140915 19.406497,31.506724 18.241185,26.709956 17.59079,23.376667 16.696442,21.994541 15.016228,21.073073 11.926792,20.016238 9.270959,18.552891 6.8319409,16.710009 5.2872192,13.972836 5.4498189,10.747968 7.9430511,9.013515 l 3.0081339,0.135479 1.761516,1.924101 1.382112,1.869944 1.490523,1.680182 2.005421,1.084067 -1.165309,-2.222281 -1.219514,-1.815673 -1.40922,-1.409199 -0.975594,-1.897016 0,-2.2222484 L 14.663931,4.4335588 17.157166,4 l 2.005413,0.9213566 1.815726,2.2221911 1.300816,3.1979303 0.744361,3.387437 0.325421,2.669668 0.989876,0.853394 3.116543,1.138203 2.981028,1.05695 3.739843,1.924101 3.577233,2.493254 3.252035,2.737052 1.70732,3.712826 -0.86723,3.414632 -2.439031,2.032508 -3.116531,-0.05469 -2.195116,-1.626035 -2.005426,-3.143648 -2.140927,-3.52294 -3.495942,-2.764248 z"
       id="path4300"
       inkscape:connector-curvature="0"
       sodipodi:nodetypes="cccccccccccccccccccccccccccccccccccccccccccccccccccccc" />
  </g>
</svg>
