<?xml version="1.0" encoding="UTF-8" standalone="no"?>
<!-- Created with Inkscape (http://www.inkscape.org/) -->

<svg
   xmlns:dc="http://purl.org/dc/elements/1.1/"
   xmlns:cc="http://creativecommons.org/ns#"
   xmlns:rdf="http://www.w3.org/1999/02/22-rdf-syntax-ns#"
   xmlns:svg="http://www.w3.org/2000/svg"
   xmlns="http://www.w3.org/2000/svg"
   xmlns:sodipodi="http://sodipodi.sourceforge.net/DTD/sodipodi-0.dtd"
   xmlns:inkscape="http://www.inkscape.org/namespaces/inkscape"
   width="48px"
   height="48px"
   id="svg4337"
   version="1.1"
   inkscape:version="0.91 r13725"
   sodipodi:docname="world_icon.svg">
  <defs
     id="defs4339" />
  <sodipodi:namedview
     id="base"
     pagecolor="#ffffff"
     bordercolor="#666666"
     borderopacity="1.0"
     inkscape:pageopacity="0.0"
     inkscape:pageshadow="2"
     inkscape:zoom="11.313708"
     inkscape:cx="26.129359"
     inkscape:cy="21.80654"
     inkscape:current-layer="layer1"
     showgrid="true"
     inkscape:grid-bbox="true"
     inkscape:document-units="px"
     inkscape:window-width="1600"
     inkscape:window-height="835"
     inkscape:window-x="0"
     inkscape:window-y="0"
     inkscape:window-maximized="1" />
  <metadata
     id="metadata4342">
    <rdf:RDF>
      <cc:Work
         rdf:about="">
        <dc:format>image/svg+xml</dc:format>
        <dc:type
           rdf:resource="http://purl.org/dc/dcmitype/StillImage" />
        <dc:title />
      </cc:Work>
    </rdf:RDF>
  </metadata>
  <g
     id="layer1"
     inkscape:label="Layer 1"
     inkscape:groupmode="layer">
    <path
       style="fill:#000000;fill-opacity:1;stroke:none;stroke-width:2.48300004;stroke-miterlimit:4;stroke-dasharray:none;stroke-opacity:1"
       d="M 24 3.5820312 A 20.417707 20.417707 0 0 0 3.5820312 24 A 20.417707 20.417707 0 0 0 24 44.417969 A 20.417707 20.417707 0 0 0 44.417969 24 A 20.417707 20.417707 0 0 0 24 3.5820312 z M 24 5.8808594 A 18.11961 18.11961 0 0 1 28.220703 6.4003906 L 26.451172 10.722656 L 23.466797 11.695312 L 21.765625 14.080078 L 19.666016 11.429688 L 19.666016 9.21875 L 17.277344 7.1816406 A 18.11961 18.11961 0 0 1 24 5.8808594 z M 13.277344 9.4179688 L 15.269531 11.363281 L 12.939453 13.580078 L 14.074219 14.503906 L 15.5625 12.154297 L 18.464844 13.580078 L 19.904297 17.382812 L 15.021484 20.980469 L 14.216797 23.070312 L 13.197266 23.400391 L 11.900391 22.144531 L 10.572266 22.582031 L 10.5625 23.384766 L 14.015625 26.382812 L 15.650391 25.732422 L 19.490234 27.433594 L 19.574219 28.447266 L 20.601562 28.470703 L 23.271484 30.580078 L 22.509766 33.558594 L 20.396484 35.138672 L 19.019531 37.851562 L 17.90625 38.820312 L 17.115234 40.751953 A 18.11961 18.11961 0 0 1 15.005859 39.714844 L 14.679688 36.957031 L 15.357422 34.574219 L 11.798828 29.9375 L 12.712891 27.34375 L 8 24.445312 L 6.0976562 21.355469 A 18.11961 18.11961 0 0 1 13.277344 9.4179688 z M 33.283203 9.8574219 L 35.300781 9.8574219 A 18.11961 18.11961 0 0 1 42.119141 24 A 18.11961 18.11961 0 0 1 42.072266 24.939453 L 39.353516 25.908203 L 38.511719 25.101562 L 39.0625 26.251953 L 40.900391 26.275391 L 40.900391 27.017578 L 38.296875 30.318359 L 38.041016 33.185547 L 37.207031 33.775391 L 35.546875 37.943359 A 18.11961 18.11961 0 0 1 35.505859 37.980469 L 33.605469 37.941406 L 31.982422 33.769531 L 31.951172 30.958984 L 30.71875 28.410156 L 27.890625 28.400391 L 26.25 26.34375 L 26.201172 23.947266 L 27.566406 22.316406 L 27.599609 21.171875 L 31.902344 20.550781 L 33.259766 20.947266 L 35.511719 20.958984 L 35.78125 20.734375 L 35.792969 18.923828 L 37.304688 18.910156 L 37.322266 18.164062 L 36.236328 18.162109 L 34.4375 20.554688 L 33.560547 19.703125 L 33.041016 20.398438 L 31.648438 19.132812 L 30.652344 19.132812 L 29.316406 19.929688 L 27.527344 20 L 27.542969 18.007812 L 28.837891 17.996094 L 28.837891 16.955078 L 31.818359 14.9375 L 32.927734 14.949219 L 33.867188 14.158203 L 33.888672 13.265625 L 33.048828 14.439453 L 30.363281 14.089844 L 30.373047 12.912109 L 31.611328 11.945312 L 33.283203 9.8574219 z M 29.169922 12.951172 L 29.867188 15.804688 L 28.265625 16.277344 L 28.150391 12.955078 L 29.169922 12.951172 z M 27.007812 14.265625 L 27.574219 14.322266 L 27.990234 16.328125 L 26.332031 16.328125 L 27.007812 14.265625 z "
       id="path4201" />
  </g>
</svg>
