<?xml version="1.0" encoding="UTF-8" standalone="no"?>
<!-- Created with Inkscape (http://www.inkscape.org/) -->

<svg
   xmlns:dc="http://purl.org/dc/elements/1.1/"
   xmlns:cc="http://creativecommons.org/ns#"
   xmlns:rdf="http://www.w3.org/1999/02/22-rdf-syntax-ns#"
   xmlns:svg="http://www.w3.org/2000/svg"
   xmlns="http://www.w3.org/2000/svg"
   xmlns:sodipodi="http://sodipodi.sourceforge.net/DTD/sodipodi-0.dtd"
   xmlns:inkscape="http://www.inkscape.org/namespaces/inkscape"
   width="48"
   height="48"
   viewBox="0 0 48 48.000001"
   id="svg2"
   version="1.1"
   inkscape:version="0.91 r13725"
   sodipodi:docname="critical_icon.svg">
  <defs
     id="defs4" />
  <sodipodi:namedview
     id="base"
     pagecolor="#ffffff"
     bordercolor="#666666"
     borderopacity="1.0"
     inkscape:pageopacity="0.0"
     inkscape:pageshadow="2"
     inkscape:zoom="11.2"
     inkscape:cx="15.730562"
     inkscape:cy="32.015796"
     inkscape:document-units="px"
     inkscape:current-layer="layer1"
     showgrid="false"
     units="px"
     inkscape:window-width="1600"
     inkscape:window-height="835"
     inkscape:window-x="0"
     inkscape:window-y="0"
     inkscape:window-maximized="1" />
  <metadata
     id="metadata7">
    <rdf:RDF>
      <cc:Work
         rdf:about="">
        <dc:format>image/svg+xml</dc:format>
        <dc:type
           rdf:resource="http://purl.org/dc/dcmitype/StillImage" />
        <dc:title></dc:title>
      </cc:Work>
    </rdf:RDF>
  </metadata>
  <g
     inkscape:label="Layer 1"
     inkscape:groupmode="layer"
     id="layer1"
     transform="translate(0,-1004.3621)">
    <path
       style="opacity:1;fill:#ff2a2a;fill-opacity:1;stroke:none;stroke-width:3;stroke-linecap:round;stroke-linejoin:round;stroke-miterlimit:4;stroke-dasharray:none;stroke-dashoffset:0;stroke-opacity:1"
       d="M 11.003906 6.0527344 C 8.2611969 6.0527344 6.0527344 8.2611969 6.0527344 11.003906 L 6.0527344 36.996094 C 6.0527344 39.738803 8.2611969 41.947266 11.003906 41.947266 L 36.996094 41.947266 C 39.738803 41.947266 41.947266 39.738803 41.947266 36.996094 L 41.947266 11.003906 C 41.947266 8.2611969 39.738803 6.0527344 36.996094 6.0527344 L 11.003906 6.0527344 z M 16.740234 13.960938 L 24 21.220703 L 31.259766 13.960938 L 34.039062 16.740234 L 26.779297 24 L 34.039062 31.259766 L 31.259766 34.039062 L 24 26.779297 L 16.740234 34.039062 L 13.960938 31.259766 L 21.220703 24 L 13.960938 16.740234 L 16.740234 13.960938 z "
       transform="translate(0,1004.3621)"
       id="rect4435" />
  </g>
</svg>
