<?xml version="1.0" encoding="UTF-8" standalone="no"?>
<!-- Created with Inkscape (http://www.inkscape.org/) -->

<svg
   xmlns:dc="http://purl.org/dc/elements/1.1/"
   xmlns:cc="http://creativecommons.org/ns#"
   xmlns:rdf="http://www.w3.org/1999/02/22-rdf-syntax-ns#"
   xmlns:svg="http://www.w3.org/2000/svg"
   xmlns="http://www.w3.org/2000/svg"
   xmlns:sodipodi="http://sodipodi.sourceforge.net/DTD/sodipodi-0.dtd"
   xmlns:inkscape="http://www.inkscape.org/namespaces/inkscape"
   width="48px"
   height="48px"
   id="svg4337"
   version="1.1"
   inkscape:version="0.91 r13725"
   sodipodi:docname="key_icon.svg">
  <defs
     id="defs4339" />
  <sodipodi:namedview
     id="base"
     pagecolor="#ffffff"
     bordercolor="#666666"
     borderopacity="1.0"
     inkscape:pageopacity="0.0"
     inkscape:pageshadow="2"
     inkscape:zoom="11.313708"
     inkscape:cx="17.869467"
     inkscape:cy="24.984972"
     inkscape:current-layer="layer1"
     showgrid="true"
     inkscape:grid-bbox="true"
     inkscape:document-units="px"
     inkscape:window-width="1600"
     inkscape:window-height="835"
     inkscape:window-x="0"
     inkscape:window-y="0"
     inkscape:window-maximized="1"
     showguides="false" />
  <metadata
     id="metadata4342">
    <rdf:RDF>
      <cc:Work
         rdf:about="">
        <dc:format>image/svg+xml</dc:format>
        <dc:type
           rdf:resource="http://purl.org/dc/dcmitype/StillImage" />
        <dc:title />
      </cc:Work>
    </rdf:RDF>
  </metadata>
  <g
     id="layer1"
     inkscape:label="Layer 1"
     inkscape:groupmode="layer">
    <path
       inkscape:connector-curvature="0"
       style="opacity:1;fill:#000000;fill-opacity:1;stroke:none;stroke-width:3.5;stroke-miterlimit:4;stroke-dasharray:none;stroke-dashoffset:0;stroke-opacity:1"
       d="m 12.031665,12.031665 a 16.926369,16.926369 0 0 0 0,23.93667 16.926369,16.926369 0 0 0 23.936669,0 16.926369,16.926369 0 0 0 0,-23.93667 16.926369,16.926369 0 0 0 -23.936669,0 z M 24.208541,15.2316 a 5.613059,5.613059 0 0 1 7.936997,0.0014 5.613059,5.613059 0 0 1 0.0014,7.936997 5.613059,5.613059 0 0 1 -6.482732,1.044087 l -3.663974,3.663974 1.948687,1.948686 c 0.391737,0.391737 0.391737,1.022477 0,1.414214 L 21.050039,34.1398 c -0.391737,0.391737 -1.022477,0.391737 -1.414214,0 l -1.948686,-1.948686 -0.401892,0.401891 c -0.729764,0.729764 -1.873524,0.758791 -2.566024,0.06629 -0.6925,-0.6925 -0.663472,-1.83626 0.06629,-2.566024 l 8.38032,-8.38032 A 5.613059,5.613059 0 0 1 24.208541,15.2316 Z m 2.469349,2.469349 a 2.1217191,2.1217191 0 0 0 -0.0014,3.001061 2.1217191,2.1217191 0 0 0 3.001061,-0.0014 2.1217191,2.1217191 0 0 0 0,-2.99968 2.1217191,2.1217191 0 0 0 -2.99968,0 z"
       id="path4255" />
    <circle
       r="21.619587"
       cy="33.941124"
       cx="-2.4203235e-08"
       id="circle4257"
       style="opacity:1;fill:none;fill-opacity:1;stroke:#000000;stroke-width:4.80000019;stroke-miterlimit:4;stroke-dasharray:none;stroke-dashoffset:0;stroke-opacity:1"
       transform="matrix(0.70710678,-0.70710678,0.70710678,0.70710678,0,0)" />
  </g>
</svg>
